<svg baseProfile="full" height="1536" version="1.1" width="1024"
     xmlns="http://www.w3.org/2000/svg"
><defs /><polygon fill="black" points="699.0,1255.0" /><polygon fill="black" points="572.0,1254.0" /><polygon fill="black" points="517.0,1254.0" /><polygon fill="black" points="647.0,1252.0" /><polygon fill="black" points="645.0,1251.0" /><polygon fill="black" points="520.0,1248.0" /><polygon fill="black" points="567.0,1247.0" /><polygon fill="black" points="564.0,1247.0 564.0,1248.0 567.0,1251.0 568.0,1251.0 569.0,1252.0 569.0,1251.0 568.0,1250.0 567.0,1250.0" /><polygon fill="black" points="548.0,1247.0 549.0,1248.0 549.0,1249.0 549.0,1248.0" /><polygon fill="black" points="470.0,1245.0" /><polygon fill="black" points="647.0,1244.0" /><polygon fill="black" points="527.0,1244.0 526.0,1245.0 524.0,1245.0 524.0,1246.0 525.0,1245.0 526.0,1245.0" /><polygon fill="black" points="551.0,1241.0 551.0,1242.0" /><polygon fill="black" points="619.0,1237.0 619.0,1238.0 620.0,1237.0" /><polygon fill="black" points="466.0,1236.0 466.0,1239.0 466.0,1237.0 467.0,1236.0" /><polygon fill="black" points="471.0,1234.0 472.0,1234.0" /><polygon fill="black" points="510.0,1232.0" /><polygon fill="black" points="639.0,1230.0" /><polygon fill="black" points="482.0,1230.0 483.0,1230.0" /><polygon fill="black" points="469.0,1230.0 469.0,1231.0 467.0,1233.0 468.0,1233.0 468.0,1232.0 469.0,1231.0 470.0,1231.0" /><polygon fill="black" points="643.0,1228.0" /><polygon fill="black" points="549.0,1228.0" /><polygon fill="black" points="471.0,1228.0" /><polygon fill="black" points="640.0,1227.0" /><polygon fill="black" points="473.0,1227.0 473.0,1228.0 474.0,1228.0 474.0,1227.0" /><polygon fill="black" points="510.0,1226.0" /><polygon fill="black" points="462.0,1226.0" /><polygon fill="black" points="650.0,1225.0 650.0,1226.0" /><polygon fill="black" points="477.0,1225.0" /><polygon fill="black" points="472.0,1225.0" /><polygon fill="black" points="643.0,1224.0 644.0,1224.0" /><polygon fill="black" points="640.0,1224.0 640.0,1225.0 641.0,1225.0 641.0,1224.0" /><polygon fill="black" points="458.0,1224.0 458.0,1225.0" /><polygon fill="black" points="699.0,1223.0" /><polygon fill="black" points="677.0,1223.0" /><polygon fill="black" points="629.0,1223.0" /><polygon fill="black" points="631.0,1222.0" /><polygon fill="black" points="463.0,1222.0" /><polygon fill="black" points="456.0,1222.0 456.0,1223.0" /><polygon fill="black" points="672.0,1221.0" /><polygon fill="black" points="633.0,1221.0 634.0,1221.0" /><polygon fill="black" points="562.0,1221.0" /><polygon fill="black" points="636.0,1220.0" /><polygon fill="black" points="461.0,1220.0" /><polygon fill="black" points="464.0,1219.0" /><polygon fill="black" points="399.0,1218.0" /><polygon fill="black" points="622.0,1217.0" /><polygon fill="black" points="405.0,1217.0" /><polygon fill="black" points="626.0,1215.0 626.0,1216.0 627.0,1216.0 627.0,1215.0" /><polygon fill="black" points="449.0,1215.0 450.0,1215.0" /><polygon fill="black" points="558.0,1213.0" /><polygon fill="black" points="553.0,1211.0" /><polygon fill="black" points="578.0,1210.0 577.0,1211.0 577.0,1212.0 578.0,1211.0" /><polygon fill="black" points="646.0,1209.0" /><polygon fill="black" points="648.0,1208.0 649.0,1208.0" /><polygon fill="black" points="638.0,1207.0" /><polygon fill="black" points="545.0,1207.0" /><polygon fill="black" points="579.0,1205.0 579.0,1206.0" /><polygon fill="black" points="498.0,1205.0" /><polygon fill="black" points="691.0,1203.0" /><polygon fill="black" points="663.0,1203.0" /><polygon fill="black" points="518.0,1200.0 518.0,1201.0 519.0,1201.0 519.0,1200.0" /><polygon fill="black" points="648.0,1199.0" /><polygon fill="black" points="634.0,1199.0" /><polygon fill="black" points="539.0,1199.0" /><polygon fill="black" points="670.0,1198.0" /><polygon fill="black" points="554.0,1198.0" /><polygon fill="black" points="657.0,1197.0 657.0,1198.0 658.0,1198.0" /><polygon fill="black" points="651.0,1196.0" /><polygon fill="black" points="653.0,1195.0 654.0,1195.0" /><polygon fill="black" points="561.0,1195.0 561.0,1197.0 562.0,1196.0 562.0,1195.0" /><polygon fill="black" points="657.0,1194.0 656.0,1195.0 657.0,1195.0 658.0,1194.0" /><polygon fill="black" points="576.0,1194.0 577.0,1194.0" /><polygon fill="black" points="566.0,1193.0 565.0,1194.0 564.0,1194.0 567.0,1194.0 568.0,1193.0 567.0,1194.0" /><polygon fill="black" points="531.0,1193.0 531.0,1194.0" /><polygon fill="black" points="570.0,1192.0 570.0,1193.0 572.0,1193.0 573.0,1194.0 574.0,1194.0 574.0,1193.0 573.0,1192.0 572.0,1193.0 571.0,1192.0" /><polygon fill="black" points="557.0,1192.0 558.0,1192.0" /><polygon fill="black" points="529.0,1192.0" /><polygon fill="black" points="546.0,1191.0 545.0,1192.0 544.0,1192.0 543.0,1193.0 542.0,1193.0 541.0,1194.0 542.0,1193.0 543.0,1194.0 544.0,1194.0 545.0,1193.0 545.0,1192.0 546.0,1191.0 547.0,1191.0" /><polygon fill="black" points="563.0,1190.0" /><polygon fill="black" points="556.0,1190.0" /><polygon fill="black" points="528.0,1190.0" /><polygon fill="black" points="526.0,1190.0" /><polygon fill="black" points="659.0,1189.0" /><polygon fill="black" points="616.0,1189.0" /><polygon fill="black" points="580.0,1189.0" /><polygon fill="black" points="552.0,1189.0" /><polygon fill="black" points="543.0,1189.0" /><polygon fill="black" points="584.0,1188.0" /><polygon fill="black" points="576.0,1188.0 577.0,1188.0" /><polygon fill="black" points="678.0,1187.0" /><polygon fill="black" points="526.0,1186.0 526.0,1187.0" /><polygon fill="black" points="616.0,1184.0" /><polygon fill="black" points="613.0,1184.0" /><polygon fill="black" points="570.0,1184.0 570.0,1185.0 571.0,1186.0 572.0,1186.0" /><polygon fill="black" points="567.0,1184.0" /><polygon fill="black" points="523.0,1184.0" /><polygon fill="black" points="437.0,1184.0" /><polygon fill="black" points="632.0,1183.0" /><polygon fill="black" points="469.0,1183.0 470.0,1183.0" /><polygon fill="black" points="576.0,1182.0" /><polygon fill="black" points="414.0,1182.0 415.0,1182.0" /><polygon fill="black" points="656.0,1181.0" /><polygon fill="black" points="565.0,1181.0 566.0,1181.0" /><polygon fill="black" points="472.0,1181.0 472.0,1183.0 473.0,1183.0 473.0,1182.0" /><polygon fill="black" points="407.0,1180.0 407.0,1181.0" /><polygon fill="black" points="656.0,1179.0" /><polygon fill="black" points="467.0,1179.0 466.0,1180.0 467.0,1180.0 468.0,1179.0" /><polygon fill="black" points="658.0,1178.0" /><polygon fill="black" points="561.0,1178.0 562.0,1179.0 562.0,1180.0 563.0,1180.0 563.0,1179.0 564.0,1178.0" /><polygon fill="black" points="471.0,1178.0" /><polygon fill="black" points="514.0,1177.0" /><polygon fill="black" points="665.0,1176.0 665.0,1177.0 662.0,1180.0 663.0,1180.0 664.0,1179.0 665.0,1180.0 666.0,1180.0 667.0,1181.0 668.0,1180.0 667.0,1181.0 665.0,1179.0" /><polygon fill="black" points="655.0,1176.0 655.0,1177.0" /><polygon fill="black" points="652.0,1176.0 652.0,1177.0" /><polygon fill="black" points="566.0,1176.0" /><polygon fill="black" points="476.0,1176.0" /><polygon fill="black" points="473.0,1176.0" /><polygon fill="black" points="654.0,1174.0" /><polygon fill="black" points="560.0,1174.0 561.0,1175.0 561.0,1174.0" /><polygon fill="black" points="450.0,1174.0 451.0,1174.0" /><polygon fill="black" points="441.0,1174.0" /><polygon fill="black" points="671.0,1173.0" /><polygon fill="black" points="433.0,1173.0 433.0,1174.0 435.0,1176.0 435.0,1175.0" /><polygon fill="black" points="425.0,1173.0" /><polygon fill="black" points="655.0,1172.0" /><polygon fill="black" points="520.0,1172.0" /><polygon fill="black" points="415.0,1172.0" /><polygon fill="black" points="569.0,1171.0 568.0,1172.0 569.0,1172.0 570.0,1171.0" /><polygon fill="black" points="419.0,1171.0" /><polygon fill="black" points="647.0,1170.0" /><polygon fill="black" points="643.0,1170.0" /><polygon fill="black" points="561.0,1170.0 560.0,1171.0 560.0,1172.0 561.0,1172.0" /><polygon fill="black" points="481.0,1170.0" /><polygon fill="black" points="474.0,1170.0" /><polygon fill="black" points="534.0,1169.0" /><polygon fill="black" points="651.0,1168.0" /><polygon fill="black" points="574.0,1168.0 575.0,1168.0" /><polygon fill="black" points="559.0,1168.0 559.0,1169.0" /><polygon fill="black" points="521.0,1168.0" /><polygon fill="black" points="518.0,1168.0" /><polygon fill="black" points="447.0,1168.0" /><polygon fill="black" points="493.0,1167.0" /><polygon fill="black" points="474.0,1167.0" /><polygon fill="black" points="653.0,1165.0 654.0,1165.0" /><polygon fill="black" points="484.0,1165.0 485.0,1165.0" /><polygon fill="black" points="478.0,1165.0" /><polygon fill="black" points="471.0,1165.0" /><polygon fill="black" points="657.0,1164.0" /><polygon fill="black" points="481.0,1164.0" /><polygon fill="black" points="664.0,1163.0" /><polygon fill="black" points="660.0,1163.0" /><polygon fill="black" points="474.0,1163.0 475.0,1163.0" /><polygon fill="black" points="658.0,1162.0" /><polygon fill="black" points="650.0,1162.0" /><polygon fill="black" points="560.0,1162.0" /><polygon fill="black" points="661.0,1161.0" /><polygon fill="black" points="569.0,1161.0 570.0,1161.0" /><polygon fill="black" points="663.0,1160.0" /><polygon fill="black" points="564.0,1160.0 564.0,1161.0 563.0,1162.0 562.0,1161.0 563.0,1162.0 564.0,1161.0 565.0,1161.0" /><polygon fill="black" points="475.0,1160.0 476.0,1160.0" /><polygon fill="black" points="586.0,1159.0" /><polygon fill="black" points="572.0,1159.0 572.0,1160.0" /><polygon fill="black" points="482.0,1159.0 482.0,1160.0 481.0,1161.0 480.0,1161.0 481.0,1161.0 482.0,1160.0 483.0,1160.0" /><polygon fill="black" points="581.0,1158.0 581.0,1159.0 580.0,1160.0 579.0,1160.0 578.0,1159.0 576.0,1159.0 577.0,1159.0 578.0,1160.0 577.0,1161.0 575.0,1161.0 575.0,1163.0 575.0,1162.0 576.0,1161.0 579.0,1161.0 582.0,1158.0" /><polygon fill="black" points="563.0,1158.0" /><polygon fill="black" points="653.0,1157.0" /><polygon fill="black" points="462.0,1156.0" /><polygon fill="black" points="422.0,1155.0" /><polygon fill="black" points="635.0,1154.0" /><polygon fill="black" points="497.0,1154.0 498.0,1154.0" /><polygon fill="black" points="514.0,1153.0 512.0,1155.0 513.0,1155.0 513.0,1154.0" /><polygon fill="black" points="608.0,1152.0" /><polygon fill="black" points="499.0,1152.0" /><polygon fill="black" points="430.0,1152.0" /><polygon fill="black" points="611.0,1151.0" /><polygon fill="black" points="460.0,1151.0 461.0,1151.0" /><polygon fill="black" points="421.0,1151.0" /><polygon fill="black" points="590.0,1150.0" /><polygon fill="black" points="467.0,1149.0 468.0,1150.0 468.0,1151.0 468.0,1149.0" /><polygon fill="black" points="643.0,1146.0" /><polygon fill="black" points="593.0,1145.0 591.0,1147.0" /><polygon fill="black" points="647.0,1144.0 646.0,1145.0" /><polygon fill="black" points="625.0,1144.0" /><polygon fill="black" points="588.0,1143.0 589.0,1144.0" /><polygon fill="black" points="477.0,1143.0 478.0,1143.0" /><polygon fill="black" points="637.0,1142.0" /><polygon fill="black" points="417.0,1142.0" /><polygon fill="black" points="598.0,1141.0 598.0,1142.0 599.0,1142.0" /><polygon fill="black" points="592.0,1141.0" /><polygon fill="black" points="470.0,1141.0" /><polygon fill="black" points="482.0,1140.0" /><polygon fill="black" points="461.0,1140.0" /><polygon fill="black" points="470.0,1139.0" /><polygon fill="black" points="412.0,1139.0" /><polygon fill="black" points="596.0,1138.0" /><polygon fill="black" points="648.0,1137.0" /><polygon fill="black" points="640.0,1137.0" /><polygon fill="black" points="456.0,1137.0 456.0,1138.0 457.0,1138.0 457.0,1137.0" /><polygon fill="black" points="647.0,1135.0" /><polygon fill="black" points="487.0,1134.0 487.0,1135.0 488.0,1134.0" /><polygon fill="black" points="406.0,1134.0" /><polygon fill="black" points="482.0,1133.0 483.0,1134.0 483.0,1133.0" /><polygon fill="black" points="620.0,1132.0" /><polygon fill="black" points="515.0,1132.0" /><polygon fill="black" points="633.0,1131.0 634.0,1132.0 634.0,1131.0" /><polygon fill="black" points="487.0,1131.0" /><polygon fill="black" points="478.0,1131.0" /><polygon fill="black" points="416.0,1131.0" /><polygon fill="black" points="644.0,1130.0 645.0,1131.0" /><polygon fill="black" points="626.0,1130.0" /><polygon fill="black" points="578.0,1130.0" /><polygon fill="black" points="640.0,1129.0 641.0,1130.0 641.0,1131.0 642.0,1131.0 641.0,1130.0 641.0,1129.0" /><polygon fill="black" points="538.0,1129.0 538.0,1130.0" /><polygon fill="black" points="535.0,1129.0" /><polygon fill="black" points="488.0,1129.0" /><polygon fill="black" points="634.0,1128.0 635.0,1128.0" /><polygon fill="black" points="628.0,1128.0 630.0,1130.0" /><polygon fill="black" points="482.0,1128.0" /><polygon fill="black" points="639.0,1127.0" /><polygon fill="black" points="630.0,1127.0" /><polygon fill="black" points="587.0,1127.0" /><polygon fill="black" points="536.0,1127.0 537.0,1127.0" /><polygon fill="black" points="526.0,1127.0" /><polygon fill="black" points="518.0,1127.0" /><polygon fill="black" points="397.0,1127.0" /><polygon fill="black" points="573.0,1126.0" /><polygon fill="black" points="625.0,1125.0" /><polygon fill="black" points="641.0,1124.0" /><polygon fill="black" points="484.0,1124.0 484.0,1125.0 485.0,1124.0" /><polygon fill="black" points="635.0,1123.0" /><polygon fill="black" points="573.0,1123.0" /><polygon fill="black" points="564.0,1122.0" /><polygon fill="black" points="580.0,1121.0 580.0,1122.0 581.0,1121.0" /><polygon fill="black" points="571.0,1120.0 572.0,1120.0" /><polygon fill="black" points="583.0,1119.0 584.0,1119.0" /><polygon fill="black" points="522.0,1119.0" /><polygon fill="black" points="477.0,1119.0" /><polygon fill="black" points="473.0,1119.0" /><polygon fill="black" points="581.0,1117.0" /><polygon fill="black" points="574.0,1117.0" /><polygon fill="black" points="542.0,1117.0" /><polygon fill="black" points="457.0,1117.0" /><polygon fill="black" points="536.0,1116.0" /><polygon fill="black" points="583.0,1115.0" /><polygon fill="black" points="528.0,1113.0" /><polygon fill="black" points="510.0,1111.0 507.0,1114.0 507.0,1115.0 506.0,1116.0 508.0,1114.0 508.0,1113.0 509.0,1112.0 510.0,1112.0" /><polygon fill="black" points="457.0,1111.0 458.0,1112.0 458.0,1111.0" /><polygon fill="black" points="417.0,1110.0" /><polygon fill="black" points="583.0,1109.0" /><polygon fill="black" points="563.0,1109.0" /><polygon fill="black" points="458.0,1107.0" /><polygon fill="black" points="556.0,1105.0 556.0,1106.0" /><polygon fill="black" points="554.0,1103.0 555.0,1103.0" /><polygon fill="black" points="560.0,1101.0 560.0,1102.0 563.0,1105.0 562.0,1104.0 562.0,1103.0 561.0,1103.0 560.0,1102.0" /><polygon fill="black" points="544.0,1101.0 544.0,1103.0" /><polygon fill="black" points="455.0,1101.0 456.0,1101.0" /><polygon fill="black" points="529.0,1099.0" /><polygon fill="black" points="453.0,1099.0" /><polygon fill="black" points="420.0,1099.0 421.0,1099.0" /><polygon fill="black" points="618.0,1098.0" /><polygon fill="black" points="584.0,1098.0 584.0,1099.0 585.0,1099.0" /><polygon fill="black" points="494.0,1098.0 495.0,1098.0" /><polygon fill="black" points="418.0,1098.0" /><polygon fill="black" points="612.0,1097.0 613.0,1097.0" /><polygon fill="black" points="532.0,1097.0 533.0,1097.0" /><polygon fill="black" points="450.0,1097.0 450.0,1098.0 451.0,1098.0 451.0,1097.0" /><polygon fill="black" points="607.0,1096.0" /><polygon fill="black" points="625.0,1095.0 624.0,1096.0 625.0,1095.0 626.0,1095.0" /><polygon fill="black" points="582.0,1095.0 582.0,1096.0" /><polygon fill="black" points="616.0,1094.0" /><polygon fill="black" points="608.0,1094.0" /><polygon fill="black" points="618.0,1093.0" /><polygon fill="black" points="541.0,1092.0" /><polygon fill="black" points="553.0,1091.0" /><polygon fill="black" points="440.0,1091.0 441.0,1091.0" /><polygon fill="black" points="621.0,1088.0" /><polygon fill="black" points="546.0,1088.0 547.0,1088.0 548.0,1089.0 548.0,1090.0 549.0,1091.0 548.0,1090.0 548.0,1089.0 547.0,1088.0" /><polygon fill="black" points="463.0,1087.0" /><polygon fill="black" points="401.0,1087.0" /><polygon fill="black" points="573.0,1086.0" /><polygon fill="black" points="496.0,1086.0" /><polygon fill="black" points="521.0,1084.0 521.0,1085.0" /><polygon fill="black" points="518.0,1084.0" /><polygon fill="black" points="442.0,1084.0" /><polygon fill="black" points="534.0,1083.0 533.0,1084.0 534.0,1084.0" /><polygon fill="black" points="508.0,1083.0" /><polygon fill="black" points="619.0,1082.0 620.0,1082.0" /><polygon fill="black" points="544.0,1082.0 544.0,1083.0" /><polygon fill="black" points="406.0,1082.0" /><polygon fill="black" points="582.0,1081.0 583.0,1081.0" /><polygon fill="black" points="570.0,1081.0 571.0,1082.0 571.0,1083.0 570.0,1084.0 573.0,1081.0 572.0,1081.0 571.0,1082.0" /><polygon fill="black" points="467.0,1081.0 466.0,1082.0" /><polygon fill="black" points="438.0,1081.0 437.0,1082.0" /><polygon fill="black" points="427.0,1081.0" /><polygon fill="black" points="416.0,1081.0 416.0,1082.0 418.0,1082.0 417.0,1082.0" /><polygon fill="black" points="550.0,1080.0 550.0,1081.0 548.0,1083.0 549.0,1084.0 549.0,1083.0 550.0,1082.0" /><polygon fill="black" points="516.0,1080.0 517.0,1080.0" /><polygon fill="black" points="569.0,1079.0" /><polygon fill="black" points="537.0,1079.0" /><polygon fill="black" points="447.0,1079.0 444.0,1082.0 447.0,1079.0 449.0,1081.0 448.0,1080.0 448.0,1079.0" /><polygon fill="black" points="441.0,1079.0 441.0,1080.0 442.0,1080.0 442.0,1079.0" /><polygon fill="black" points="556.0,1078.0" /><polygon fill="black" points="540.0,1078.0 540.0,1080.0" /><polygon fill="black" points="506.0,1078.0" /><polygon fill="black" points="470.0,1078.0 469.0,1079.0" /><polygon fill="black" points="520.0,1077.0 520.0,1078.0 521.0,1079.0 520.0,1080.0 521.0,1081.0 521.0,1079.0 520.0,1078.0" /><polygon fill="black" points="441.0,1077.0 442.0,1077.0" /><polygon fill="black" points="577.0,1076.0 576.0,1077.0" /><polygon fill="black" points="522.0,1076.0" /><polygon fill="black" points="505.0,1076.0" /><polygon fill="black" points="473.0,1076.0" /><polygon fill="black" points="553.0,1075.0 554.0,1076.0 554.0,1075.0" /><polygon fill="black" points="462.0,1075.0" /><polygon fill="black" points="446.0,1075.0 446.0,1076.0 447.0,1077.0 446.0,1076.0" /><polygon fill="black" points="546.0,1074.0" /><polygon fill="black" points="475.0,1074.0" /><polygon fill="black" points="440.0,1074.0" /><polygon fill="black" points="494.0,1073.0 493.0,1074.0 494.0,1074.0 495.0,1073.0" /><polygon fill="black" points="482.0,1072.0" /><polygon fill="black" points="475.0,1072.0 476.0,1072.0" /><polygon fill="black" points="543.0,1071.0" /><polygon fill="black" points="446.0,1071.0 446.0,1072.0" /><polygon fill="black" points="437.0,1071.0 436.0,1072.0 437.0,1071.0 438.0,1072.0 438.0,1071.0" /><polygon fill="black" points="407.0,1071.0 406.0,1072.0 407.0,1072.0 408.0,1073.0 409.0,1073.0 408.0,1073.0 407.0,1072.0" /><polygon fill="black" points="574.0,1070.0" /><polygon fill="black" points="496.0,1070.0" /><polygon fill="black" points="489.0,1070.0 490.0,1070.0" /><polygon fill="black" points="511.0,1069.0 511.0,1070.0 512.0,1070.0" /><polygon fill="black" points="478.0,1068.0 478.0,1069.0 477.0,1070.0 478.0,1069.0" /><polygon fill="black" points="445.0,1068.0" /><polygon fill="black" points="434.0,1068.0" /><polygon fill="black" points="570.0,1067.0 571.0,1068.0" /><polygon fill="black" points="518.0,1067.0 519.0,1068.0 519.0,1067.0" /><polygon fill="black" points="491.0,1067.0 491.0,1068.0" /><polygon fill="black" points="489.0,1067.0" /><polygon fill="black" points="462.0,1067.0" /><polygon fill="black" points="494.0,1066.0" /><polygon fill="black" points="479.0,1066.0 480.0,1067.0 480.0,1068.0 480.0,1067.0" /><polygon fill="black" points="432.0,1066.0 431.0,1067.0" /><polygon fill="black" points="506.0,1065.0 507.0,1065.0" /><polygon fill="black" points="484.0,1065.0" /><polygon fill="black" points="573.0,1064.0 573.0,1065.0 574.0,1065.0 577.0,1068.0 577.0,1067.0 576.0,1067.0 575.0,1066.0 575.0,1065.0 574.0,1064.0" /><polygon fill="black" points="487.0,1064.0" /><polygon fill="black" points="442.0,1064.0" /><polygon fill="black" points="527.0,1063.0" /><polygon fill="black" points="564.0,1061.0 565.0,1062.0 565.0,1063.0 566.0,1063.0 565.0,1062.0 565.0,1061.0" /><polygon fill="black" points="526.0,1058.0" /><polygon fill="black" points="505.0,1058.0" /><polygon fill="black" points="475.0,1058.0" /><polygon fill="black" points="566.0,1057.0" /><polygon fill="black" points="529.0,1056.0" /><polygon fill="black" points="512.0,1056.0" /><polygon fill="black" points="484.0,1056.0" /><polygon fill="black" points="474.0,1055.0" /><polygon fill="black" points="470.0,1055.0 470.0,1056.0" /><polygon fill="black" points="443.0,1054.0 443.0,1055.0" /><polygon fill="black" points="407.0,1054.0 408.0,1054.0" /><polygon fill="black" points="519.0,1053.0" /><polygon fill="black" points="510.0,1052.0 508.0,1054.0 506.0,1054.0 509.0,1054.0 510.0,1053.0" /><polygon fill="black" points="480.0,1052.0 479.0,1053.0 480.0,1052.0 481.0,1052.0" /><polygon fill="black" points="476.0,1052.0 476.0,1053.0" /><polygon fill="black" points="436.0,1052.0" /><polygon fill="black" points="578.0,1051.0" /><polygon fill="black" points="463.0,1051.0 464.0,1051.0 465.0,1052.0 465.0,1051.0" /><polygon fill="black" points="430.0,1051.0 430.0,1052.0 431.0,1051.0" /><polygon fill="black" points="493.0,1050.0" /><polygon fill="black" points="472.0,1050.0" /><polygon fill="black" points="544.0,1049.0" /><polygon fill="black" points="571.0,1048.0" /><polygon fill="black" points="538.0,1047.0" /><polygon fill="black" points="509.0,1044.0 509.0,1045.0" /><polygon fill="black" points="422.0,1042.0" /><polygon fill="black" points="590.0,1041.0" /><polygon fill="black" points="565.0,1040.0" /><polygon fill="black" points="426.0,1039.0 427.0,1040.0 427.0,1041.0 426.0,1042.0 427.0,1041.0 427.0,1040.0" /><polygon fill="black" points="574.0,1038.0 573.0,1039.0" /><polygon fill="black" points="563.0,1037.0 562.0,1038.0 563.0,1037.0 564.0,1037.0" /><polygon fill="black" points="511.0,1037.0" /><polygon fill="black" points="576.0,1035.0 575.0,1036.0" /><polygon fill="black" points="561.0,1035.0" /><polygon fill="black" points="502.0,1035.0" /><polygon fill="black" points="542.0,1034.0" /><polygon fill="black" points="560.0,1032.0 561.0,1032.0" /><polygon fill="black" points="507.0,1032.0" /><polygon fill="black" points="563.0,1030.0" /><polygon fill="black" points="580.0,1029.0" /><polygon fill="black" points="576.0,1029.0" /><polygon fill="black" points="585.0,1027.0" /><polygon fill="black" points="564.0,1027.0 566.0,1029.0 565.0,1028.0 565.0,1027.0" /><polygon fill="black" points="580.0,1026.0 582.0,1028.0" /><polygon fill="black" points="545.0,1025.0" /><polygon fill="black" points="577.0,1024.0" /><polygon fill="black" points="435.0,1024.0" /><polygon fill="black" points="428.0,1024.0" /><polygon fill="black" points="547.0,1023.0" /><polygon fill="black" points="540.0,1023.0 541.0,1023.0" /><polygon fill="black" points="561.0,1022.0 561.0,1023.0" /><polygon fill="black" points="538.0,1022.0" /><polygon fill="black" points="507.0,1022.0" /><polygon fill="black" points="402.0,1022.0" /><polygon fill="black" points="565.0,1021.0 566.0,1021.0" /><polygon fill="black" points="540.0,1020.0" /><polygon fill="black" points="471.0,1020.0" /><polygon fill="black" points="555.0,1018.0 556.0,1019.0 557.0,1019.0 556.0,1019.0" /><polygon fill="black" points="544.0,1018.0" /><polygon fill="black" points="467.0,1018.0" /><polygon fill="black" points="405.0,1018.0 406.0,1018.0" /><polygon fill="black" points="566.0,1017.0 568.0,1017.0" /><polygon fill="black" points="538.0,1017.0 538.0,1018.0" /><polygon fill="black" points="469.0,1016.0" /><polygon fill="black" points="581.0,1015.0" /><polygon fill="black" points="435.0,1015.0 434.0,1016.0 436.0,1016.0 436.0,1015.0" /><polygon fill="black" points="430.0,1015.0" /><polygon fill="black" points="418.0,1015.0 419.0,1015.0" /><polygon fill="black" points="506.0,1013.0" /><polygon fill="black" points="468.0,1013.0 468.0,1014.0" /><polygon fill="black" points="436.0,1012.0 437.0,1012.0 438.0,1013.0 439.0,1012.0 440.0,1012.0" /><polygon fill="black" points="536.0,1009.0 536.0,1010.0 537.0,1011.0 537.0,1012.0 537.0,1011.0 536.0,1010.0" /><polygon fill="black" points="493.0,1009.0 491.0,1011.0 490.0,1011.0 488.0,1013.0 488.0,1014.0 492.0,1010.0 493.0,1010.0" /><polygon fill="black" points="469.0,1009.0" /><polygon fill="black" points="437.0,1009.0" /><polygon fill="black" points="513.0,1008.0 514.0,1008.0" /><polygon fill="black" points="566.0,1007.0 566.0,1008.0 565.0,1009.0 566.0,1008.0" /><polygon fill="black" points="561.0,1007.0 561.0,1008.0" /><polygon fill="black" points="555.0,1007.0" /><polygon fill="black" points="528.0,1007.0 529.0,1008.0" /><polygon fill="black" points="558.0,1006.0" /><polygon fill="black" points="473.0,1006.0" /><polygon fill="black" points="433.0,1006.0" /><polygon fill="black" points="582.0,1005.0" /><polygon fill="black" points="565.0,1005.0" /><polygon fill="black" points="562.0,1005.0" /><polygon fill="black" points="543.0,1005.0" /><polygon fill="black" points="420.0,1005.0" /><polygon fill="black" points="415.0,1005.0" /><polygon fill="black" points="544.0,1003.0" /><polygon fill="black" points="563.0,1002.0" /><polygon fill="black" points="420.0,1002.0" /><polygon fill="black" points="540.0,1001.0" /><polygon fill="black" points="523.0,1001.0" /><polygon fill="black" points="527.0,1000.0" /><polygon fill="black" points="428.0,1000.0 429.0,1000.0" /><polygon fill="black" points="524.0,999.0" /><polygon fill="black" points="410.0,998.0" /><polygon fill="black" points="526.0,997.0" /><polygon fill="black" points="428.0,997.0" /><polygon fill="black" points="536.0,996.0" /><polygon fill="black" points="486.0,996.0 487.0,996.0" /><polygon fill="black" points="489.0,995.0" /><polygon fill="black" points="483.0,995.0 483.0,996.0" /><polygon fill="black" points="525.0,993.0 524.0,994.0 525.0,995.0 525.0,994.0 526.0,993.0" /><polygon fill="black" points="536.0,992.0 536.0,993.0" /><polygon fill="black" points="496.0,992.0" /><polygon fill="black" points="528.0,990.0 529.0,990.0" /><polygon fill="black" points="418.0,990.0" /><polygon fill="black" points="585.0,989.0" /><polygon fill="black" points="443.0,989.0" /><polygon fill="black" points="414.0,985.0" /><polygon fill="black" points="552.0,982.0" /><polygon fill="black" points="413.0,981.0" /><polygon fill="black" points="518.0,978.0 518.0,979.0" /><polygon fill="black" points="579.0,977.0" /><polygon fill="black" points="485.0,977.0 485.0,978.0" /><polygon fill="black" points="558.0,973.0" /><polygon fill="black" points="492.0,972.0 492.0,975.0 493.0,975.0 492.0,974.0" /><polygon fill="black" points="483.0,970.0" /><polygon fill="black" points="510.0,969.0 512.0,971.0 512.0,972.0 514.0,974.0 514.0,975.0 516.0,977.0 516.0,976.0 515.0,976.0 514.0,975.0 514.0,974.0 513.0,973.0 513.0,972.0 511.0,970.0 511.0,969.0" /><polygon fill="black" points="577.0,967.0" /><polygon fill="black" points="507.0,966.0 508.0,966.0" /><polygon fill="black" points="488.0,965.0 489.0,965.0 490.0,966.0 489.0,965.0" /><polygon fill="black" points="550.0,962.0" /><polygon fill="black" points="484.0,962.0" /><polygon fill="black" points="433.0,962.0" /><polygon fill="black" points="506.0,958.0" /><polygon fill="black" points="527.0,955.0 527.0,956.0" /><polygon fill="black" points="524.0,954.0" /><polygon fill="black" points="526.0,948.0" /><polygon fill="black" points="453.0,943.0 453.0,944.0" /><polygon fill="black" points="526.0,942.0" /><polygon fill="black" points="533.0,941.0" /><polygon fill="black" points="542.0,940.0" /><polygon fill="black" points="528.0,940.0" /><polygon fill="black" points="444.0,939.0" /><polygon fill="black" points="452.0,937.0 452.0,938.0" /><polygon fill="black" points="441.0,937.0" /><polygon fill="black" points="447.0,936.0 447.0,937.0" /><polygon fill="black" points="586.0,929.0" /><polygon fill="black" points="541.0,924.0" /><polygon fill="black" points="586.0,921.0 585.0,922.0" /><polygon fill="black" points="469.0,918.0" /><polygon fill="black" points="511.0,912.0" /><polygon fill="black" points="434.0,908.0" /><polygon fill="black" points="458.0,907.0" /><polygon fill="black" points="475.0,897.0" /><polygon fill="black" points="453.0,895.0" /><polygon fill="black" points="527.0,893.0" /><polygon fill="black" points="443.0,892.0" /><polygon fill="black" points="581.0,891.0" /><polygon fill="black" points="539.0,887.0" /><polygon fill="black" points="468.0,884.0 468.0,886.0 469.0,886.0 468.0,885.0" /><polygon fill="black" points="549.0,882.0 549.0,885.0 548.0,886.0 548.0,887.0 549.0,886.0 549.0,884.0 550.0,883.0" /><polygon fill="black" points="532.0,880.0" /><polygon fill="black" points="563.0,879.0" /><polygon fill="black" points="572.0,878.0" /><polygon fill="black" points="565.0,877.0" /><polygon fill="black" points="549.0,875.0 549.0,876.0" /><polygon fill="black" points="547.0,871.0 549.0,873.0 548.0,872.0 548.0,871.0" /><polygon fill="black" points="580.0,869.0" /><polygon fill="black" points="553.0,869.0 554.0,869.0" /><polygon fill="black" points="577.0,868.0 577.0,869.0" /><polygon fill="black" points="549.0,865.0 548.0,866.0 548.0,869.0 549.0,868.0" /><polygon fill="black" points="469.0,861.0" /><polygon fill="black" points="545.0,859.0" /><polygon fill="black" points="486.0,843.0" /><polygon fill="black" points="491.0,842.0 491.0,843.0" /><polygon fill="black" points="494.0,840.0 494.0,841.0" /><polygon fill="black" points="489.0,837.0 490.0,838.0 490.0,840.0 490.0,838.0" /><polygon fill="black" points="484.0,837.0" /><polygon fill="black" points="494.0,835.0" /><polygon fill="black" points="575.0,833.0 574.0,834.0 573.0,834.0 573.0,835.0 574.0,836.0 575.0,836.0 574.0,835.0 574.0,834.0" /><polygon fill="black" points="552.0,826.0 553.0,826.0" /><polygon fill="black" points="557.0,823.0 558.0,824.0" /><polygon fill="black" points="543.0,822.0" /><polygon fill="black" points="511.0,814.0" /><polygon fill="black" points="525.0,813.0" /><polygon fill="black" points="518.0,811.0 517.0,812.0" /><polygon fill="black" points="415.0,811.0" /><polygon fill="black" points="522.0,809.0 522.0,810.0 523.0,811.0 523.0,810.0" /><polygon fill="black" points="518.0,806.0" /><polygon fill="black" points="514.0,802.0 514.0,803.0" /><polygon fill="black" points="530.0,800.0 531.0,800.0" /><polygon fill="black" points="528.0,799.0" /><polygon fill="black" points="525.0,799.0 525.0,800.0" /><polygon fill="black" points="407.0,799.0" /><polygon fill="black" points="526.0,797.0" /><polygon fill="black" points="531.0,796.0 530.0,797.0 530.0,798.0 531.0,797.0" /><polygon fill="black" points="407.0,795.0" /><polygon fill="black" points="561.0,793.0" /><polygon fill="black" points="553.0,793.0" /><polygon fill="black" points="557.0,791.0" /><polygon fill="black" points="525.0,788.0" /><polygon fill="black" points="567.0,787.0" /><polygon fill="black" points="422.0,787.0" /><polygon fill="black" points="560.0,784.0" /><polygon fill="black" points="421.0,784.0 421.0,785.0" /><polygon fill="black" points="547.0,783.0 548.0,783.0" /><polygon fill="black" points="418.0,783.0" /><polygon fill="black" points="528.0,782.0" /><polygon fill="black" points="561.0,781.0" /><polygon fill="black" points="417.0,781.0" /><polygon fill="black" points="519.0,780.0" /><polygon fill="black" points="419.0,780.0" /><polygon fill="black" points="524.0,779.0" /><polygon fill="black" points="552.0,775.0" /><polygon fill="black" points="559.0,774.0 559.0,775.0" /><polygon fill="black" points="551.0,773.0" /><polygon fill="black" points="420.0,773.0" /><polygon fill="black" points="443.0,769.0" /><polygon fill="black" points="559.0,768.0" /><polygon fill="black" points="435.0,767.0" /><polygon fill="black" points="546.0,764.0" /><polygon fill="black" points="543.0,764.0 543.0,766.0 542.0,767.0 542.0,771.0 541.0,772.0 541.0,776.0 540.0,777.0 540.0,780.0 539.0,781.0 539.0,783.0 538.0,784.0 538.0,786.0 537.0,787.0 537.0,790.0 536.0,791.0 536.0,793.0 535.0,794.0 535.0,795.0 534.0,796.0 534.0,798.0 533.0,799.0 533.0,801.0 532.0,802.0 532.0,804.0 531.0,805.0 531.0,807.0 530.0,808.0 530.0,809.0 529.0,810.0 529.0,811.0 528.0,812.0 528.0,813.0 527.0,814.0 527.0,816.0 526.0,817.0 526.0,818.0 525.0,819.0 525.0,820.0 524.0,821.0 524.0,823.0 523.0,824.0 523.0,825.0 522.0,826.0 522.0,827.0 521.0,828.0 521.0,829.0 520.0,830.0 520.0,831.0 519.0,832.0 519.0,833.0 518.0,834.0 518.0,835.0 517.0,836.0 517.0,837.0 516.0,838.0 516.0,839.0 515.0,840.0 515.0,841.0 514.0,842.0 514.0,843.0 513.0,844.0 513.0,845.0 512.0,846.0 512.0,847.0 510.0,849.0 510.0,850.0 509.0,851.0 509.0,852.0 508.0,853.0 508.0,854.0 506.0,856.0 506.0,857.0 505.0,858.0 505.0,859.0 504.0,860.0 504.0,861.0 502.0,863.0 502.0,865.0 500.0,867.0 500.0,868.0 499.0,869.0 499.0,870.0 498.0,871.0 498.0,872.0 497.0,873.0 497.0,874.0 495.0,876.0 495.0,877.0 493.0,879.0 493.0,880.0 492.0,881.0 492.0,882.0 491.0,883.0 491.0,884.0 490.0,885.0 490.0,886.0 488.0,888.0 488.0,889.0 487.0,890.0 487.0,891.0 486.0,892.0 486.0,893.0 484.0,895.0 484.0,896.0 483.0,897.0 483.0,898.0 482.0,899.0 482.0,900.0 481.0,901.0 481.0,902.0 480.0,903.0 480.0,904.0 479.0,905.0 479.0,906.0 477.0,908.0 477.0,909.0 476.0,910.0 476.0,911.0 474.0,913.0 474.0,914.0 473.0,915.0 473.0,917.0 472.0,918.0 472.0,919.0 470.0,921.0 470.0,922.0 469.0,923.0 469.0,924.0 467.0,926.0 467.0,927.0 466.0,928.0 466.0,929.0 465.0,930.0 465.0,931.0 463.0,933.0 463.0,934.0 462.0,935.0 462.0,936.0 461.0,937.0 461.0,939.0 460.0,940.0 460.0,941.0 459.0,942.0 459.0,943.0 458.0,944.0 458.0,946.0 457.0,947.0 457.0,948.0 456.0,949.0 456.0,950.0 455.0,951.0 455.0,953.0 454.0,954.0 454.0,955.0 453.0,956.0 453.0,958.0 452.0,959.0 452.0,962.0 451.0,963.0 451.0,965.0 450.0,966.0 450.0,969.0 449.0,970.0 449.0,973.0 448.0,974.0 448.0,977.0 447.0,978.0 447.0,981.0 446.0,982.0 446.0,987.0 445.0,988.0 445.0,994.0 444.0,995.0 444.0,1006.0 443.0,1007.0 443.0,1008.0 444.0,1009.0 444.0,1010.0 443.0,1011.0 443.0,1029.0 444.0,1030.0 443.0,1031.0 443.0,1032.0 444.0,1033.0 444.0,1047.0 445.0,1048.0 445.0,1054.0 446.0,1055.0 446.0,1061.0 447.0,1062.0 447.0,1067.0 448.0,1068.0 448.0,1071.0 449.0,1072.0 449.0,1075.0 450.0,1076.0 450.0,1078.0 451.0,1079.0 451.0,1081.0 452.0,1082.0 452.0,1084.0 453.0,1085.0 453.0,1087.0 454.0,1088.0 454.0,1090.0 455.0,1091.0 455.0,1092.0 456.0,1093.0 456.0,1094.0 457.0,1095.0 457.0,1098.0 458.0,1099.0 458.0,1100.0 459.0,1101.0 459.0,1103.0 460.0,1104.0 460.0,1105.0 461.0,1106.0 461.0,1108.0 462.0,1109.0 462.0,1110.0 463.0,1111.0 463.0,1112.0 464.0,1113.0 464.0,1114.0 465.0,1115.0 465.0,1117.0 466.0,1118.0 466.0,1119.0 467.0,1120.0 467.0,1121.0 468.0,1122.0 468.0,1121.0 467.0,1120.0 467.0,1118.0 466.0,1117.0 466.0,1115.0 465.0,1114.0 465.0,1110.0 464.0,1109.0 464.0,1107.0 463.0,1106.0 463.0,1101.0 462.0,1100.0 462.0,1096.0 461.0,1095.0 461.0,1086.0 460.0,1085.0 460.0,1065.0 459.0,1064.0 460.0,1063.0 460.0,1046.0 461.0,1045.0 461.0,1034.0 462.0,1033.0 462.0,1029.0 463.0,1028.0 463.0,1024.0 464.0,1023.0 464.0,1018.0 465.0,1017.0 465.0,1013.0 466.0,1012.0 466.0,1008.0 467.0,1007.0 467.0,1002.0 468.0,1001.0 468.0,1000.0 469.0,999.0 469.0,995.0 470.0,994.0 470.0,992.0 471.0,991.0 471.0,989.0 472.0,988.0 472.0,985.0 473.0,984.0 473.0,983.0 474.0,982.0 474.0,980.0 475.0,979.0 475.0,977.0 476.0,976.0 476.0,975.0 477.0,974.0 477.0,972.0 478.0,971.0 478.0,969.0 479.0,968.0 479.0,967.0 480.0,966.0 480.0,965.0 481.0,964.0 481.0,963.0 482.0,962.0 482.0,961.0 483.0,960.0 483.0,959.0 484.0,958.0 484.0,957.0 485.0,956.0 485.0,955.0 486.0,954.0 486.0,952.0 487.0,951.0 487.0,950.0 488.0,949.0 488.0,948.0 489.0,947.0 489.0,946.0 491.0,944.0 491.0,943.0 492.0,942.0 492.0,941.0 493.0,940.0 493.0,939.0 494.0,938.0 494.0,937.0 496.0,935.0 496.0,934.0 497.0,933.0 497.0,932.0 498.0,931.0 498.0,930.0 499.0,929.0 499.0,928.0 501.0,926.0 501.0,924.0 503.0,922.0 503.0,921.0 504.0,920.0 504.0,919.0 505.0,918.0 505.0,917.0 506.0,916.0 506.0,915.0 507.0,914.0 507.0,913.0 509.0,911.0 509.0,910.0 510.0,909.0 510.0,908.0 511.0,907.0 511.0,906.0 512.0,905.0 512.0,904.0 513.0,903.0 513.0,902.0 514.0,901.0 514.0,900.0 515.0,899.0 515.0,898.0 516.0,897.0 516.0,896.0 517.0,895.0 517.0,894.0 518.0,893.0 518.0,892.0 519.0,891.0 519.0,889.0 520.0,888.0 520.0,887.0 521.0,886.0 521.0,884.0 523.0,882.0 523.0,880.0 524.0,879.0 524.0,878.0 525.0,877.0 525.0,875.0 526.0,874.0 526.0,873.0 527.0,872.0 527.0,870.0 528.0,869.0 528.0,868.0 529.0,867.0 529.0,865.0 530.0,864.0 530.0,861.0 531.0,860.0 531.0,859.0 532.0,858.0 532.0,856.0 533.0,855.0 533.0,853.0 534.0,852.0 534.0,849.0 535.0,848.0 535.0,846.0 536.0,845.0 536.0,842.0 537.0,841.0 537.0,839.0 538.0,838.0 538.0,834.0 539.0,833.0 539.0,830.0 540.0,829.0 540.0,825.0 541.0,824.0 541.0,819.0 542.0,818.0 542.0,812.0 543.0,811.0 543.0,801.0 544.0,800.0 543.0,799.0 544.0,798.0 544.0,773.0 543.0,772.0" /><polygon fill="black" points="533.0,759.0 534.0,759.0" /><polygon fill="black" points="539.0,758.0 540.0,759.0 540.0,758.0" /><polygon fill="black" points="528.0,755.0" /><polygon fill="black" points="536.0,754.0" /><polygon fill="black" points="450.0,753.0" /><polygon fill="black" points="465.0,740.0" /><polygon fill="black" points="475.0,575.0" /><polygon fill="black" points="499.0,459.0" /><polygon fill="black" points="422.0,458.0 423.0,458.0" /><polygon fill="black" points="502.0,457.0" /><polygon fill="black" points="491.0,450.0 492.0,450.0" /><polygon fill="black" points="489.0,449.0" /><polygon fill="black" points="504.0,448.0 504.0,449.0 505.0,448.0" /><polygon fill="black" points="468.0,448.0" /><polygon fill="black" points="506.0,445.0 507.0,446.0 507.0,445.0" /><polygon fill="black" points="502.0,445.0" /><polygon fill="black" points="495.0,445.0" /><polygon fill="black" points="468.0,445.0" /><polygon fill="black" points="497.0,444.0" /><polygon fill="black" points="511.0,442.0 512.0,442.0" /><polygon fill="black" points="479.0,442.0 479.0,443.0 480.0,442.0" /><polygon fill="black" points="455.0,441.0" /><polygon fill="black" points="476.0,438.0 476.0,439.0 477.0,440.0 476.0,441.0 476.0,443.0 477.0,442.0 476.0,441.0 477.0,440.0 478.0,440.0" /><polygon fill="black" points="453.0,417.0" /><polygon fill="black" points="745.0,416.0 745.0,417.0 744.0,418.0 744.0,420.0 743.0,421.0 743.0,424.0 742.0,425.0 742.0,427.0 741.0,428.0 741.0,430.0 740.0,431.0 740.0,433.0 739.0,434.0 739.0,437.0 738.0,438.0 738.0,439.0 737.0,440.0 737.0,442.0 736.0,443.0 736.0,445.0 735.0,446.0 735.0,449.0 734.0,450.0 734.0,452.0 733.0,453.0 733.0,456.0 732.0,457.0 732.0,459.0 731.0,460.0 731.0,462.0 730.0,463.0 730.0,466.0 729.0,467.0 729.0,469.0 728.0,470.0 728.0,473.0 727.0,474.0 727.0,477.0 726.0,478.0 726.0,480.0 725.0,481.0 725.0,484.0 724.0,485.0 724.0,488.0 723.0,489.0 723.0,492.0 722.0,493.0 722.0,496.0 721.0,497.0 721.0,500.0 720.0,501.0 720.0,502.0 719.0,503.0 719.0,505.0 720.0,504.0 720.0,503.0 721.0,502.0 721.0,501.0 722.0,500.0 722.0,499.0 723.0,498.0 723.0,497.0 724.0,496.0 724.0,495.0 725.0,494.0 725.0,492.0 726.0,491.0 726.0,490.0 727.0,489.0 727.0,488.0 728.0,487.0 728.0,485.0 729.0,484.0 729.0,482.0 730.0,481.0 730.0,480.0 731.0,479.0 731.0,477.0 732.0,476.0 732.0,474.0 733.0,473.0 733.0,471.0 734.0,470.0 734.0,467.0 735.0,466.0 735.0,464.0 736.0,463.0 736.0,460.0 737.0,459.0 737.0,457.0 738.0,456.0 738.0,453.0 739.0,452.0 739.0,449.0 740.0,448.0 740.0,445.0 741.0,444.0 741.0,440.0 742.0,439.0 742.0,436.0 743.0,435.0 743.0,430.0 744.0,429.0 744.0,424.0 745.0,423.0" /><polygon fill="black" points="459.0,410.0" /><polygon fill="black" points="761.0,380.0 761.0,393.0 762.0,394.0 762.0,410.0 763.0,411.0 763.0,421.0 764.0,422.0 764.0,430.0 765.0,431.0 765.0,437.0 766.0,438.0 766.0,444.0 767.0,445.0 767.0,450.0 768.0,451.0 768.0,456.0 769.0,457.0 769.0,462.0 770.0,463.0 770.0,467.0 771.0,468.0 771.0,472.0 772.0,473.0 772.0,477.0 773.0,478.0 773.0,482.0 774.0,483.0 774.0,485.0 775.0,486.0 775.0,490.0 776.0,491.0 776.0,494.0 777.0,495.0 777.0,498.0 778.0,499.0 778.0,502.0 779.0,503.0 779.0,506.0 780.0,507.0 780.0,511.0 779.0,512.0 775.0,512.0 774.0,511.0 767.0,511.0 766.0,510.0 765.0,511.0 764.0,510.0 743.0,510.0 742.0,511.0 733.0,511.0 732.0,512.0 728.0,512.0 727.0,513.0 724.0,513.0 723.0,514.0 721.0,514.0 720.0,515.0 718.0,515.0 716.0,517.0 716.0,519.0 715.0,520.0 715.0,522.0 716.0,523.0 716.0,524.0 723.0,531.0 724.0,531.0 726.0,533.0 727.0,533.0 728.0,534.0 729.0,534.0 730.0,535.0 731.0,535.0 732.0,536.0 734.0,536.0 735.0,537.0 736.0,537.0 737.0,538.0 740.0,538.0 741.0,539.0 749.0,539.0 750.0,540.0 757.0,540.0 758.0,539.0 763.0,539.0 764.0,538.0 768.0,538.0 769.0,537.0 771.0,537.0 772.0,536.0 773.0,536.0 774.0,535.0 776.0,535.0 778.0,533.0 779.0,533.0 780.0,532.0 781.0,532.0 783.0,530.0 784.0,530.0 793.0,521.0 793.0,520.0 794.0,519.0 793.0,518.0 793.0,517.0 794.0,516.0 793.0,515.0 793.0,511.0 792.0,510.0 792.0,508.0 791.0,507.0 791.0,505.0 790.0,504.0 790.0,503.0 789.0,502.0 789.0,500.0 788.0,499.0 788.0,497.0 787.0,496.0 787.0,494.0 786.0,493.0 786.0,491.0 785.0,490.0 785.0,488.0 784.0,487.0 784.0,485.0 783.0,484.0 783.0,482.0 782.0,481.0 782.0,479.0 781.0,478.0 781.0,476.0 780.0,475.0 780.0,473.0 779.0,472.0 779.0,469.0 778.0,468.0 778.0,466.0 777.0,465.0 777.0,462.0 776.0,461.0 776.0,458.0 775.0,457.0 775.0,455.0 774.0,454.0 774.0,450.0 773.0,449.0 773.0,446.0 772.0,445.0 772.0,442.0 771.0,441.0 771.0,438.0 770.0,437.0 770.0,433.0 769.0,432.0 769.0,428.0 768.0,427.0 768.0,423.0 767.0,422.0 767.0,418.0 766.0,417.0 766.0,412.0 765.0,411.0 765.0,405.0 764.0,404.0 764.0,398.0 763.0,397.0 763.0,392.0 762.0,391.0 762.0,381.0" /><polygon fill="black" points="474.0,380.0 474.0,381.0 475.0,382.0 476.0,382.0 477.0,383.0 478.0,383.0 479.0,384.0 480.0,384.0 481.0,383.0 482.0,383.0 484.0,381.0 484.0,380.0" /><polygon fill="black" points="475.0,370.0 474.0,371.0 472.0,371.0 471.0,372.0 470.0,372.0 470.0,373.0 468.0,375.0 468.0,376.0 469.0,375.0 491.0,375.0 490.0,375.0 487.0,372.0 485.0,372.0 484.0,371.0 483.0,371.0 482.0,370.0" /><polygon fill="black" points="475.0,355.0 473.0,357.0 473.0,360.0 482.0,360.0 483.0,359.0 482.0,358.0 482.0,357.0 481.0,356.0 481.0,355.0" /><polygon fill="black" points="455.0,346.0" /><polygon fill="black" points="478.0,343.0 478.0,344.0 477.0,345.0 476.0,345.0 474.0,347.0 473.0,347.0 471.0,349.0 470.0,349.0 467.0,352.0 466.0,352.0 464.0,354.0 463.0,354.0 462.0,355.0 461.0,355.0 459.0,357.0 458.0,357.0 457.0,358.0 456.0,358.0 455.0,359.0 454.0,359.0 452.0,361.0 451.0,361.0 450.0,362.0 449.0,362.0 448.0,363.0 447.0,363.0 446.0,364.0 445.0,364.0 444.0,365.0 442.0,365.0 441.0,364.0 441.0,362.0 441.0,365.0 440.0,366.0 440.0,371.0 439.0,372.0 439.0,375.0 438.0,376.0 438.0,380.0 437.0,381.0 437.0,383.0 436.0,384.0 436.0,385.0 435.0,386.0 435.0,388.0 433.0,390.0 433.0,391.0 432.0,392.0 432.0,393.0 423.0,402.0 422.0,402.0 421.0,403.0 420.0,403.0 418.0,405.0 417.0,405.0 416.0,406.0 415.0,406.0 410.0,411.0 410.0,413.0 409.0,414.0 409.0,415.0 408.0,416.0 408.0,419.0 407.0,420.0 407.0,435.0 408.0,436.0 408.0,437.0 409.0,438.0 409.0,439.0 411.0,441.0 413.0,441.0 414.0,442.0 426.0,442.0 427.0,441.0 431.0,441.0 432.0,440.0 433.0,440.0 434.0,439.0 435.0,439.0 436.0,438.0 437.0,438.0 439.0,436.0 440.0,436.0 440.0,435.0 442.0,433.0 443.0,433.0 443.0,432.0 445.0,430.0 445.0,429.0 446.0,428.0 446.0,427.0 447.0,426.0 447.0,425.0 448.0,424.0 448.0,422.0 449.0,421.0 449.0,419.0 450.0,418.0 450.0,416.0 451.0,415.0 451.0,412.0 452.0,411.0 452.0,408.0 453.0,407.0 453.0,403.0 454.0,402.0 454.0,397.0 453.0,396.0 453.0,395.0 452.0,394.0 452.0,393.0 451.0,392.0 451.0,391.0 450.0,390.0 450.0,389.0 449.0,388.0 449.0,387.0 448.0,386.0 448.0,384.0 447.0,383.0 447.0,381.0 446.0,380.0 446.0,379.0 445.0,378.0 445.0,374.0 444.0,373.0 444.0,370.0 443.0,369.0 447.0,365.0 448.0,365.0 449.0,364.0 450.0,364.0 452.0,362.0 453.0,362.0 454.0,361.0 455.0,361.0 456.0,360.0 457.0,360.0 458.0,359.0 459.0,359.0 461.0,357.0 462.0,357.0 463.0,356.0 464.0,356.0 466.0,354.0 467.0,354.0 469.0,352.0 470.0,352.0 472.0,350.0 473.0,350.0 477.0,346.0 478.0,346.0 479.0,347.0 480.0,347.0 481.0,348.0 482.0,348.0 484.0,350.0 485.0,350.0 486.0,351.0 487.0,351.0 488.0,352.0 489.0,352.0 491.0,354.0 492.0,354.0 493.0,355.0 494.0,355.0 495.0,356.0 496.0,356.0 498.0,358.0 500.0,358.0 502.0,360.0 504.0,360.0 507.0,363.0 508.0,363.0 509.0,364.0 510.0,364.0 515.0,369.0 515.0,372.0 514.0,373.0 514.0,375.0 513.0,376.0 513.0,378.0 512.0,379.0 512.0,380.0 511.0,381.0 511.0,384.0 510.0,385.0 510.0,386.0 509.0,387.0 509.0,388.0 508.0,389.0 508.0,391.0 506.0,393.0 506.0,395.0 505.0,396.0 505.0,397.0 503.0,399.0 502.0,399.0 501.0,400.0 498.0,400.0 497.0,401.0 487.0,401.0 486.0,400.0 469.0,400.0 468.0,401.0 462.0,401.0 461.0,400.0 461.0,402.0 462.0,403.0 462.0,404.0 463.0,405.0 463.0,406.0 465.0,408.0 465.0,409.0 467.0,411.0 467.0,412.0 470.0,415.0 470.0,416.0 473.0,419.0 473.0,420.0 477.0,424.0 477.0,425.0 479.0,427.0 480.0,427.0 481.0,428.0 481.0,429.0 486.0,434.0 487.0,434.0 490.0,437.0 491.0,437.0 493.0,439.0 494.0,439.0 495.0,440.0 496.0,440.0 497.0,441.0 499.0,441.0 500.0,442.0 501.0,442.0 501.0,439.0 502.0,438.0 501.0,437.0 501.0,436.0 502.0,435.0 501.0,434.0 501.0,433.0 502.0,432.0 501.0,431.0 502.0,430.0 502.0,414.0 503.0,413.0 503.0,408.0 505.0,406.0 506.0,407.0 506.0,408.0 507.0,409.0 507.0,414.0 508.0,415.0 508.0,418.0 509.0,419.0 509.0,422.0 510.0,423.0 510.0,427.0 511.0,428.0 511.0,430.0 512.0,431.0 512.0,432.0 513.0,433.0 513.0,434.0 516.0,437.0 516.0,438.0 521.0,443.0 522.0,443.0 523.0,444.0 524.0,444.0 525.0,445.0 527.0,445.0 528.0,446.0 538.0,446.0 539.0,447.0 542.0,447.0 543.0,446.0 549.0,446.0 550.0,445.0 554.0,445.0 555.0,444.0 557.0,444.0 558.0,443.0 558.0,442.0 559.0,441.0 559.0,433.0 558.0,432.0 558.0,429.0 557.0,428.0 557.0,426.0 556.0,425.0 556.0,424.0 555.0,423.0 555.0,422.0 554.0,421.0 554.0,420.0 553.0,419.0 553.0,418.0 547.0,412.0 546.0,412.0 534.0,400.0 534.0,399.0 533.0,398.0 533.0,389.0 534.0,388.0 533.0,387.0 534.0,386.0 534.0,383.0 535.0,382.0 535.0,376.0 534.0,375.0 534.0,373.0 530.0,369.0 529.0,369.0 526.0,366.0 525.0,366.0 522.0,363.0 521.0,363.0 519.0,361.0 519.0,360.0 518.0,359.0 518.0,357.0 518.0,358.0 517.0,359.0 517.0,362.0 515.0,364.0 514.0,364.0 513.0,363.0 512.0,363.0 511.0,362.0 510.0,362.0 509.0,361.0 507.0,361.0 505.0,359.0 503.0,359.0 501.0,357.0 500.0,357.0 499.0,356.0 498.0,356.0 497.0,355.0 496.0,355.0 494.0,353.0 493.0,353.0 492.0,352.0 491.0,352.0 489.0,350.0 488.0,350.0 486.0,348.0 485.0,348.0 484.0,347.0 483.0,347.0 479.0,343.0" /><polygon fill="black" points="698.0,300.0 697.0,301.0 691.0,301.0 688.0,304.0 688.0,305.0 687.0,306.0 687.0,314.0 686.0,315.0 686.0,319.0 685.0,320.0 685.0,324.0 684.0,325.0 684.0,328.0 683.0,329.0 683.0,331.0 682.0,332.0 682.0,335.0 681.0,336.0 681.0,338.0 680.0,339.0 680.0,341.0 679.0,342.0 679.0,345.0 678.0,346.0 678.0,348.0 677.0,349.0 677.0,351.0 676.0,352.0 676.0,355.0 672.0,359.0 671.0,359.0 670.0,360.0 669.0,360.0 668.0,361.0 667.0,361.0 666.0,362.0 665.0,362.0 662.0,365.0 661.0,365.0 659.0,367.0 658.0,367.0 656.0,369.0 655.0,369.0 651.0,373.0 650.0,373.0 645.0,378.0 644.0,378.0 637.0,385.0 636.0,385.0 631.0,390.0 630.0,390.0 629.0,391.0 631.0,391.0 632.0,390.0 634.0,390.0 635.0,389.0 637.0,389.0 638.0,388.0 641.0,388.0 642.0,387.0 643.0,387.0 644.0,386.0 646.0,386.0 647.0,385.0 648.0,385.0 649.0,384.0 651.0,384.0 652.0,383.0 654.0,383.0 656.0,381.0 658.0,381.0 660.0,379.0 661.0,379.0 663.0,377.0 664.0,377.0 665.0,376.0 666.0,376.0 667.0,375.0 668.0,376.0 668.0,377.0 667.0,378.0 667.0,380.0 666.0,381.0 666.0,383.0 665.0,384.0 665.0,385.0 664.0,386.0 664.0,388.0 663.0,389.0 663.0,390.0 662.0,391.0 662.0,392.0 661.0,393.0 661.0,395.0 660.0,396.0 660.0,397.0 659.0,398.0 659.0,399.0 658.0,400.0 658.0,401.0 657.0,402.0 657.0,403.0 655.0,405.0 655.0,406.0 653.0,408.0 653.0,409.0 651.0,411.0 651.0,412.0 648.0,415.0 648.0,416.0 637.0,427.0 636.0,427.0 636.0,428.0 635.0,429.0 634.0,429.0 631.0,432.0 630.0,432.0 628.0,434.0 627.0,434.0 626.0,435.0 625.0,435.0 624.0,436.0 623.0,436.0 621.0,438.0 620.0,438.0 619.0,439.0 618.0,439.0 617.0,440.0 616.0,440.0 615.0,441.0 614.0,441.0 613.0,442.0 611.0,442.0 610.0,443.0 609.0,443.0 608.0,444.0 607.0,444.0 606.0,445.0 605.0,445.0 604.0,446.0 602.0,446.0 601.0,447.0 599.0,447.0 598.0,448.0 596.0,448.0 595.0,449.0 593.0,449.0 592.0,450.0 590.0,450.0 589.0,451.0 585.0,451.0 584.0,452.0 582.0,452.0 581.0,453.0 578.0,453.0 577.0,454.0 573.0,454.0 572.0,455.0 568.0,455.0 567.0,456.0 562.0,456.0 561.0,457.0 556.0,457.0 555.0,458.0 549.0,458.0 548.0,459.0 540.0,459.0 539.0,460.0 531.0,460.0 530.0,461.0 529.0,460.0 527.0,460.0 526.0,461.0 503.0,461.0 502.0,462.0 501.0,461.0 480.0,461.0 479.0,460.0 469.0,460.0 468.0,459.0 462.0,459.0 461.0,458.0 456.0,458.0 455.0,457.0 449.0,457.0 448.0,456.0 444.0,456.0 443.0,455.0 436.0,455.0 435.0,454.0 434.0,454.0 433.0,455.0 432.0,454.0 431.0,455.0 431.0,458.0 432.0,459.0 432.0,460.0 433.0,461.0 433.0,462.0 436.0,465.0 436.0,466.0 445.0,475.0 446.0,475.0 449.0,478.0 450.0,478.0 452.0,480.0 453.0,480.0 454.0,481.0 455.0,481.0 456.0,482.0 457.0,482.0 458.0,483.0 459.0,483.0 460.0,484.0 461.0,484.0 462.0,485.0 465.0,485.0 466.0,486.0 467.0,486.0 468.0,487.0 467.0,488.0 463.0,488.0 462.0,487.0 459.0,487.0 458.0,486.0 456.0,486.0 455.0,485.0 453.0,485.0 452.0,484.0 450.0,484.0 449.0,483.0 447.0,483.0 446.0,482.0 445.0,482.0 444.0,481.0 443.0,481.0 442.0,480.0 441.0,480.0 440.0,479.0 439.0,479.0 438.0,478.0 437.0,478.0 436.0,477.0 435.0,477.0 432.0,474.0 431.0,474.0 421.0,464.0 421.0,463.0 418.0,460.0 418.0,459.0 414.0,455.0 411.0,455.0 410.0,454.0 406.0,454.0 405.0,455.0 399.0,455.0 398.0,456.0 397.0,456.0 396.0,457.0 394.0,457.0 393.0,458.0 392.0,458.0 389.0,461.0 389.0,462.0 387.0,464.0 387.0,466.0 386.0,467.0 386.0,470.0 385.0,471.0 386.0,472.0 385.0,473.0 385.0,479.0 384.0,480.0 384.0,487.0 383.0,488.0 383.0,496.0 382.0,497.0 382.0,505.0 381.0,506.0 381.0,512.0 380.0,513.0 380.0,519.0 379.0,520.0 379.0,526.0 378.0,527.0 378.0,531.0 377.0,532.0 377.0,536.0 376.0,537.0 376.0,541.0 375.0,542.0 375.0,546.0 374.0,547.0 374.0,550.0 373.0,551.0 373.0,554.0 372.0,555.0 372.0,557.0 371.0,558.0 371.0,560.0 370.0,561.0 370.0,564.0 369.0,565.0 369.0,567.0 368.0,568.0 368.0,570.0 367.0,571.0 367.0,573.0 366.0,574.0 366.0,576.0 365.0,577.0 365.0,579.0 364.0,580.0 364.0,582.0 363.0,583.0 363.0,584.0 362.0,585.0 362.0,587.0 361.0,588.0 361.0,589.0 360.0,590.0 360.0,592.0 359.0,593.0 359.0,594.0 358.0,595.0 358.0,597.0 357.0,598.0 357.0,599.0 356.0,600.0 356.0,602.0 355.0,603.0 355.0,604.0 354.0,605.0 354.0,607.0 353.0,608.0 353.0,609.0 352.0,610.0 352.0,612.0 351.0,613.0 351.0,614.0 350.0,615.0 350.0,617.0 348.0,619.0 348.0,620.0 347.0,621.0 347.0,622.0 346.0,623.0 346.0,625.0 345.0,626.0 345.0,627.0 344.0,628.0 344.0,629.0 343.0,630.0 343.0,631.0 342.0,632.0 342.0,634.0 340.0,636.0 340.0,638.0 338.0,640.0 338.0,641.0 337.0,642.0 337.0,644.0 336.0,645.0 336.0,646.0 335.0,647.0 335.0,648.0 334.0,649.0 334.0,650.0 333.0,651.0 333.0,652.0 332.0,653.0 332.0,654.0 331.0,655.0 331.0,656.0 330.0,657.0 330.0,658.0 329.0,659.0 329.0,660.0 328.0,661.0 328.0,662.0 327.0,663.0 327.0,664.0 326.0,665.0 326.0,666.0 325.0,667.0 325.0,668.0 324.0,669.0 324.0,670.0 323.0,671.0 323.0,672.0 322.0,673.0 322.0,674.0 321.0,675.0 321.0,676.0 320.0,677.0 320.0,679.0 319.0,680.0 319.0,681.0 318.0,682.0 318.0,684.0 317.0,685.0 317.0,686.0 316.0,687.0 316.0,689.0 315.0,690.0 315.0,694.0 314.0,695.0 314.0,709.0 315.0,710.0 315.0,716.0 316.0,717.0 316.0,723.0 317.0,724.0 317.0,728.0 318.0,729.0 318.0,733.0 319.0,734.0 319.0,740.0 320.0,741.0 320.0,745.0 321.0,746.0 321.0,748.0 322.0,749.0 320.0,751.0 319.0,751.0 318.0,752.0 317.0,752.0 316.0,753.0 315.0,753.0 314.0,754.0 311.0,754.0 310.0,755.0 309.0,755.0 308.0,756.0 307.0,756.0 306.0,757.0 305.0,757.0 304.0,758.0 303.0,758.0 302.0,759.0 301.0,759.0 300.0,760.0 299.0,760.0 298.0,761.0 297.0,761.0 296.0,762.0 295.0,762.0 293.0,764.0 292.0,764.0 289.0,767.0 288.0,767.0 286.0,769.0 286.0,770.0 291.0,770.0 292.0,769.0 298.0,769.0 299.0,768.0 303.0,768.0 304.0,767.0 311.0,767.0 312.0,766.0 316.0,766.0 317.0,765.0 323.0,765.0 324.0,766.0 324.0,777.0 325.0,778.0 324.0,779.0 324.0,780.0 325.0,781.0 325.0,863.0 324.0,864.0 325.0,865.0 325.0,878.0 324.0,879.0 325.0,880.0 325.0,881.0 324.0,882.0 325.0,883.0 325.0,884.0 324.0,885.0 325.0,886.0 324.0,887.0 324.0,890.0 325.0,891.0 324.0,892.0 324.0,894.0 325.0,895.0 324.0,896.0 324.0,897.0 325.0,898.0 324.0,899.0 324.0,904.0 325.0,905.0 324.0,906.0 324.0,1170.0 325.0,1171.0 324.0,1172.0 325.0,1173.0 325.0,1186.0 326.0,1187.0 326.0,1200.0 327.0,1201.0 327.0,1209.0 328.0,1210.0 328.0,1220.0 329.0,1221.0 329.0,1229.0 330.0,1230.0 330.0,1237.0 331.0,1238.0 331.0,1245.0 332.0,1246.0 332.0,1252.0 333.0,1253.0 333.0,1258.0 334.0,1259.0 334.0,1264.0 334.0,1263.0 335.0,1262.0 334.0,1261.0 335.0,1260.0 335.0,1257.0 336.0,1256.0 336.0,1251.0 337.0,1250.0 337.0,1245.0 338.0,1244.0 338.0,1238.0 339.0,1237.0 339.0,1233.0 340.0,1232.0 340.0,1225.0 341.0,1224.0 341.0,1218.0 342.0,1217.0 342.0,1210.0 343.0,1209.0 343.0,1201.0 344.0,1200.0 344.0,1193.0 345.0,1192.0 345.0,1181.0 346.0,1180.0 346.0,1169.0 347.0,1168.0 347.0,973.0 348.0,972.0 347.0,971.0 347.0,967.0 348.0,966.0 348.0,961.0 347.0,960.0 347.0,959.0 348.0,958.0 348.0,955.0 347.0,954.0 347.0,953.0 348.0,952.0 348.0,950.0 347.0,949.0 347.0,947.0 348.0,946.0 348.0,944.0 347.0,943.0 348.0,942.0 348.0,935.0 347.0,934.0 348.0,933.0 348.0,930.0 347.0,929.0 348.0,928.0 348.0,912.0 347.0,911.0 348.0,910.0 348.0,788.0 349.0,787.0 349.0,762.0 353.0,758.0 354.0,758.0 357.0,755.0 358.0,755.0 360.0,753.0 361.0,753.0 363.0,751.0 364.0,751.0 366.0,749.0 367.0,749.0 369.0,747.0 370.0,747.0 372.0,745.0 373.0,745.0 375.0,743.0 376.0,743.0 378.0,741.0 379.0,741.0 381.0,739.0 382.0,739.0 383.0,738.0 383.0,736.0 378.0,736.0 377.0,737.0 373.0,737.0 372.0,738.0 369.0,738.0 368.0,739.0 365.0,739.0 364.0,740.0 359.0,740.0 358.0,741.0 355.0,741.0 354.0,742.0 352.0,742.0 351.0,741.0 352.0,740.0 352.0,739.0 353.0,738.0 353.0,736.0 354.0,735.0 354.0,732.0 355.0,731.0 355.0,728.0 356.0,727.0 356.0,725.0 357.0,724.0 357.0,721.0 358.0,720.0 358.0,718.0 359.0,717.0 359.0,714.0 360.0,713.0 360.0,710.0 361.0,709.0 361.0,707.0 362.0,706.0 362.0,705.0 363.0,704.0 363.0,702.0 364.0,701.0 364.0,698.0 365.0,697.0 365.0,695.0 366.0,694.0 366.0,692.0 367.0,691.0 367.0,689.0 368.0,688.0 368.0,685.0 369.0,684.0 369.0,682.0 370.0,681.0 370.0,679.0 371.0,678.0 371.0,676.0 372.0,675.0 372.0,673.0 373.0,672.0 373.0,670.0 374.0,669.0 374.0,667.0 375.0,666.0 375.0,663.0 376.0,662.0 376.0,660.0 377.0,659.0 377.0,657.0 378.0,656.0 378.0,654.0 379.0,653.0 379.0,651.0 380.0,650.0 380.0,648.0 381.0,647.0 381.0,645.0 382.0,644.0 382.0,642.0 383.0,641.0 383.0,639.0 384.0,638.0 384.0,636.0 385.0,635.0 385.0,633.0 386.0,632.0 386.0,630.0 387.0,629.0 387.0,628.0 388.0,627.0 388.0,624.0 389.0,623.0 389.0,622.0 390.0,621.0 390.0,619.0 391.0,618.0 391.0,616.0 392.0,615.0 392.0,613.0 393.0,612.0 393.0,610.0 394.0,609.0 394.0,608.0 395.0,607.0 395.0,605.0 396.0,604.0 396.0,601.0 397.0,600.0 397.0,599.0 398.0,598.0 398.0,596.0 399.0,595.0 399.0,593.0 400.0,592.0 400.0,590.0 401.0,589.0 401.0,587.0 402.0,586.0 402.0,584.0 403.0,583.0 403.0,581.0 404.0,580.0 404.0,578.0 405.0,577.0 405.0,575.0 406.0,574.0 406.0,571.0 407.0,570.0 407.0,568.0 408.0,567.0 408.0,565.0 409.0,564.0 409.0,562.0 410.0,561.0 410.0,558.0 411.0,557.0 411.0,555.0 412.0,554.0 412.0,550.0 413.0,549.0 414.0,549.0 415.0,550.0 415.0,554.0 416.0,555.0 416.0,558.0 417.0,559.0 417.0,562.0 418.0,563.0 418.0,565.0 419.0,566.0 419.0,570.0 420.0,571.0 420.0,574.0 421.0,575.0 421.0,578.0 422.0,579.0 422.0,582.0 423.0,583.0 423.0,587.0 424.0,588.0 424.0,592.0 425.0,593.0 425.0,599.0 426.0,600.0 426.0,631.0 425.0,632.0 425.0,639.0 424.0,640.0 424.0,645.0 423.0,646.0 423.0,651.0 422.0,652.0 422.0,656.0 421.0,657.0 421.0,660.0 420.0,661.0 420.0,664.0 419.0,665.0 419.0,668.0 418.0,669.0 418.0,672.0 417.0,673.0 417.0,676.0 416.0,677.0 416.0,680.0 415.0,681.0 415.0,683.0 414.0,684.0 414.0,687.0 413.0,688.0 413.0,690.0 412.0,691.0 412.0,693.0 411.0,694.0 411.0,697.0 410.0,698.0 410.0,701.0 409.0,702.0 409.0,704.0 408.0,705.0 408.0,708.0 407.0,709.0 407.0,712.0 406.0,713.0 406.0,716.0 405.0,717.0 405.0,720.0 404.0,721.0 404.0,725.0 403.0,726.0 403.0,730.0 402.0,731.0 402.0,736.0 401.0,737.0 401.0,749.0 400.0,750.0 400.0,789.0 405.0,784.0 406.0,784.0 407.0,783.0 407.0,782.0 411.0,778.0 412.0,778.0 423.0,767.0 424.0,767.0 429.0,762.0 430.0,762.0 431.0,761.0 431.0,760.0 434.0,757.0 435.0,757.0 439.0,753.0 440.0,753.0 441.0,752.0 441.0,751.0 443.0,749.0 444.0,749.0 466.0,727.0 466.0,726.0 471.0,721.0 471.0,720.0 477.0,714.0 477.0,713.0 480.0,710.0 480.0,709.0 483.0,706.0 483.0,705.0 486.0,702.0 486.0,701.0 488.0,699.0 488.0,698.0 490.0,696.0 490.0,695.0 491.0,694.0 491.0,693.0 494.0,690.0 494.0,689.0 495.0,688.0 495.0,687.0 497.0,685.0 497.0,684.0 498.0,683.0 498.0,682.0 499.0,681.0 499.0,680.0 500.0,679.0 500.0,678.0 502.0,676.0 502.0,675.0 504.0,673.0 504.0,672.0 505.0,671.0 505.0,670.0 506.0,669.0 506.0,668.0 507.0,667.0 507.0,666.0 508.0,665.0 508.0,664.0 509.0,663.0 509.0,662.0 510.0,661.0 510.0,660.0 511.0,659.0 511.0,657.0 512.0,656.0 512.0,654.0 513.0,653.0 514.0,654.0 514.0,658.0 513.0,659.0 513.0,660.0 512.0,661.0 512.0,663.0 511.0,664.0 511.0,666.0 510.0,667.0 510.0,669.0 509.0,670.0 509.0,672.0 508.0,673.0 508.0,675.0 507.0,676.0 507.0,677.0 506.0,678.0 506.0,679.0 505.0,680.0 505.0,682.0 504.0,683.0 504.0,685.0 502.0,687.0 502.0,689.0 501.0,690.0 501.0,691.0 500.0,692.0 500.0,693.0 499.0,694.0 499.0,696.0 498.0,697.0 498.0,698.0 497.0,699.0 497.0,700.0 496.0,701.0 496.0,702.0 495.0,703.0 495.0,704.0 494.0,705.0 494.0,706.0 493.0,707.0 493.0,708.0 491.0,710.0 491.0,711.0 490.0,712.0 490.0,713.0 489.0,714.0 489.0,715.0 488.0,716.0 488.0,717.0 487.0,718.0 487.0,719.0 485.0,721.0 485.0,722.0 484.0,723.0 484.0,724.0 483.0,725.0 483.0,726.0 481.0,728.0 481.0,729.0 479.0,731.0 479.0,732.0 478.0,733.0 478.0,734.0 477.0,735.0 477.0,736.0 475.0,738.0 475.0,739.0 473.0,741.0 473.0,742.0 471.0,744.0 471.0,745.0 469.0,747.0 469.0,748.0 467.0,750.0 467.0,751.0 466.0,752.0 466.0,753.0 463.0,756.0 463.0,757.0 462.0,758.0 462.0,759.0 459.0,762.0 459.0,763.0 457.0,765.0 457.0,766.0 455.0,768.0 455.0,769.0 453.0,771.0 453.0,772.0 450.0,775.0 450.0,776.0 448.0,778.0 448.0,779.0 445.0,782.0 445.0,783.0 442.0,786.0 442.0,787.0 440.0,789.0 440.0,790.0 437.0,793.0 437.0,794.0 434.0,797.0 434.0,798.0 432.0,800.0 432.0,801.0 429.0,804.0 429.0,805.0 428.0,806.0 428.0,807.0 426.0,809.0 426.0,810.0 425.0,811.0 425.0,812.0 424.0,813.0 423.0,813.0 423.0,814.0 421.0,816.0 421.0,818.0 419.0,820.0 419.0,821.0 417.0,823.0 417.0,824.0 415.0,826.0 415.0,827.0 413.0,829.0 413.0,830.0 412.0,831.0 412.0,832.0 410.0,834.0 410.0,835.0 409.0,836.0 409.0,837.0 407.0,839.0 407.0,840.0 406.0,841.0 406.0,842.0 405.0,843.0 405.0,844.0 404.0,845.0 404.0,846.0 403.0,847.0 403.0,848.0 401.0,850.0 401.0,851.0 400.0,852.0 400.0,853.0 399.0,854.0 399.0,855.0 398.0,856.0 398.0,857.0 397.0,858.0 397.0,859.0 396.0,860.0 396.0,861.0 395.0,862.0 395.0,863.0 393.0,865.0 393.0,867.0 392.0,868.0 392.0,869.0 391.0,870.0 391.0,871.0 390.0,872.0 390.0,873.0 389.0,874.0 389.0,876.0 388.0,877.0 388.0,878.0 387.0,879.0 387.0,880.0 386.0,881.0 386.0,882.0 385.0,883.0 385.0,886.0 384.0,887.0 384.0,889.0 383.0,890.0 383.0,892.0 382.0,893.0 382.0,895.0 381.0,896.0 381.0,898.0 380.0,899.0 380.0,901.0 379.0,902.0 379.0,905.0 378.0,906.0 378.0,909.0 377.0,910.0 377.0,914.0 376.0,915.0 376.0,918.0 375.0,919.0 375.0,924.0 374.0,925.0 374.0,929.0 373.0,930.0 373.0,938.0 372.0,939.0 372.0,950.0 371.0,951.0 371.0,983.0 372.0,984.0 372.0,994.0 373.0,995.0 373.0,1003.0 374.0,1004.0 374.0,1010.0 375.0,1011.0 375.0,1015.0 376.0,1016.0 376.0,1020.0 377.0,1021.0 377.0,1025.0 378.0,1026.0 378.0,1029.0 379.0,1030.0 379.0,1032.0 380.0,1033.0 380.0,1036.0 381.0,1037.0 381.0,1039.0 382.0,1040.0 382.0,1043.0 383.0,1044.0 383.0,1047.0 384.0,1048.0 384.0,1050.0 385.0,1051.0 385.0,1053.0 386.0,1054.0 386.0,1056.0 387.0,1057.0 387.0,1059.0 388.0,1060.0 388.0,1062.0 389.0,1063.0 389.0,1064.0 390.0,1065.0 390.0,1067.0 391.0,1068.0 391.0,1069.0 392.0,1070.0 392.0,1072.0 393.0,1073.0 393.0,1075.0 394.0,1076.0 394.0,1077.0 395.0,1078.0 395.0,1080.0 396.0,1081.0 396.0,1083.0 397.0,1084.0 397.0,1086.0 398.0,1087.0 398.0,1088.0 398.0,1067.0 399.0,1066.0 399.0,1063.0 398.0,1062.0 398.0,1061.0 399.0,1060.0 399.0,1059.0 398.0,1058.0 399.0,1057.0 399.0,1056.0 398.0,1055.0 398.0,1054.0 399.0,1053.0 398.0,1052.0 398.0,1051.0 399.0,1050.0 398.0,1049.0 398.0,1044.0 399.0,1043.0 398.0,1042.0 398.0,1023.0 399.0,1022.0 398.0,1021.0 399.0,1020.0 399.0,1005.0 400.0,1004.0 400.0,993.0 401.0,992.0 401.0,986.0 402.0,985.0 402.0,981.0 403.0,980.0 403.0,976.0 404.0,975.0 404.0,970.0 405.0,969.0 405.0,967.0 406.0,966.0 406.0,962.0 407.0,961.0 407.0,959.0 408.0,958.0 408.0,955.0 409.0,954.0 409.0,951.0 410.0,950.0 410.0,948.0 411.0,947.0 411.0,946.0 412.0,945.0 412.0,943.0 413.0,942.0 413.0,940.0 414.0,939.0 414.0,937.0 415.0,936.0 415.0,935.0 416.0,934.0 416.0,932.0 417.0,931.0 417.0,930.0 418.0,929.0 418.0,927.0 419.0,926.0 419.0,925.0 420.0,924.0 420.0,923.0 421.0,922.0 421.0,921.0 422.0,920.0 422.0,918.0 424.0,916.0 424.0,915.0 425.0,914.0 425.0,913.0 426.0,912.0 426.0,911.0 427.0,910.0 427.0,909.0 428.0,908.0 428.0,907.0 429.0,906.0 429.0,905.0 430.0,904.0 430.0,903.0 431.0,902.0 431.0,901.0 433.0,899.0 433.0,898.0 435.0,896.0 435.0,895.0 436.0,894.0 436.0,893.0 437.0,892.0 437.0,891.0 439.0,889.0 439.0,888.0 441.0,886.0 441.0,885.0 443.0,883.0 443.0,882.0 445.0,880.0 445.0,879.0 447.0,877.0 447.0,876.0 449.0,874.0 449.0,873.0 452.0,870.0 452.0,869.0 453.0,868.0 453.0,867.0 456.0,864.0 456.0,863.0 458.0,861.0 458.0,860.0 460.0,858.0 460.0,857.0 463.0,854.0 463.0,853.0 465.0,851.0 465.0,850.0 468.0,847.0 468.0,846.0 470.0,844.0 470.0,843.0 474.0,839.0 474.0,838.0 478.0,834.0 478.0,833.0 480.0,831.0 480.0,830.0 484.0,826.0 484.0,825.0 486.0,823.0 486.0,822.0 488.0,820.0 488.0,819.0 491.0,816.0 491.0,815.0 493.0,813.0 493.0,812.0 494.0,811.0 494.0,810.0 496.0,808.0 496.0,807.0 497.0,806.0 497.0,805.0 498.0,804.0 498.0,803.0 500.0,801.0 500.0,800.0 502.0,798.0 502.0,796.0 504.0,794.0 504.0,793.0 505.0,792.0 505.0,791.0 507.0,789.0 507.0,788.0 508.0,787.0 508.0,786.0 509.0,785.0 509.0,784.0 510.0,783.0 510.0,782.0 511.0,781.0 511.0,780.0 512.0,779.0 512.0,778.0 513.0,777.0 513.0,776.0 514.0,775.0 514.0,774.0 515.0,773.0 515.0,772.0 517.0,770.0 517.0,769.0 518.0,768.0 518.0,767.0 519.0,766.0 519.0,765.0 520.0,764.0 520.0,761.0 522.0,759.0 522.0,758.0 523.0,757.0 523.0,756.0 524.0,755.0 525.0,756.0 525.0,755.0 524.0,754.0 525.0,753.0 526.0,753.0 525.0,752.0 526.0,751.0 526.0,748.0 527.0,747.0 527.0,746.0 528.0,745.0 528.0,744.0 529.0,743.0 529.0,741.0 530.0,740.0 530.0,739.0 531.0,738.0 531.0,735.0 532.0,734.0 532.0,732.0 533.0,731.0 533.0,729.0 534.0,728.0 534.0,726.0 535.0,725.0 535.0,722.0 536.0,721.0 536.0,710.0 537.0,709.0 538.0,710.0 538.0,711.0 539.0,712.0 539.0,713.0 540.0,714.0 539.0,715.0 541.0,717.0 541.0,719.0 542.0,720.0 542.0,721.0 543.0,722.0 543.0,724.0 544.0,725.0 544.0,726.0 545.0,727.0 545.0,728.0 546.0,729.0 546.0,731.0 547.0,732.0 547.0,733.0 548.0,734.0 548.0,736.0 549.0,737.0 549.0,738.0 550.0,739.0 550.0,741.0 551.0,742.0 551.0,743.0 552.0,744.0 552.0,745.0 553.0,746.0 553.0,748.0 554.0,749.0 554.0,750.0 555.0,751.0 555.0,752.0 556.0,753.0 556.0,755.0 557.0,756.0 557.0,757.0 558.0,758.0 558.0,759.0 559.0,760.0 559.0,761.0 560.0,762.0 560.0,764.0 561.0,765.0 561.0,767.0 562.0,768.0 562.0,769.0 563.0,770.0 563.0,771.0 564.0,772.0 564.0,774.0 565.0,775.0 565.0,776.0 566.0,777.0 566.0,779.0 567.0,780.0 567.0,781.0 568.0,782.0 568.0,784.0 569.0,785.0 569.0,787.0 570.0,788.0 570.0,790.0 571.0,791.0 571.0,792.0 572.0,793.0 572.0,795.0 573.0,796.0 573.0,797.0 574.0,798.0 574.0,801.0 575.0,802.0 575.0,804.0 576.0,805.0 576.0,808.0 577.0,809.0 577.0,810.0 578.0,811.0 578.0,815.0 579.0,816.0 579.0,818.0 580.0,819.0 580.0,821.0 581.0,822.0 581.0,826.0 582.0,827.0 582.0,830.0 583.0,831.0 583.0,837.0 584.0,838.0 584.0,842.0 585.0,843.0 585.0,854.0 586.0,855.0 586.0,866.0 587.0,867.0 586.0,868.0 586.0,869.0 587.0,870.0 587.0,875.0 587.0,861.0 588.0,860.0 588.0,830.0 587.0,829.0 587.0,814.0 586.0,813.0 586.0,805.0 585.0,804.0 585.0,797.0 584.0,796.0 584.0,791.0 583.0,790.0 583.0,785.0 582.0,784.0 582.0,780.0 581.0,779.0 581.0,775.0 580.0,774.0 580.0,771.0 579.0,770.0 579.0,766.0 578.0,765.0 578.0,762.0 577.0,761.0 577.0,758.0 576.0,757.0 576.0,754.0 575.0,753.0 575.0,750.0 574.0,749.0 574.0,746.0 573.0,745.0 573.0,742.0 572.0,741.0 572.0,739.0 571.0,738.0 571.0,736.0 570.0,735.0 570.0,731.0 569.0,730.0 569.0,728.0 568.0,727.0 568.0,724.0 567.0,723.0 567.0,720.0 566.0,719.0 566.0,718.0 565.0,717.0 565.0,715.0 564.0,714.0 564.0,711.0 563.0,710.0 563.0,708.0 562.0,707.0 562.0,705.0 561.0,704.0 561.0,702.0 560.0,701.0 560.0,699.0 559.0,698.0 559.0,696.0 558.0,695.0 558.0,693.0 557.0,692.0 557.0,690.0 556.0,689.0 556.0,687.0 555.0,686.0 555.0,684.0 554.0,683.0 554.0,681.0 553.0,680.0 553.0,678.0 552.0,677.0 552.0,675.0 551.0,674.0 551.0,671.0 550.0,670.0 550.0,669.0 549.0,668.0 549.0,665.0 548.0,664.0 548.0,662.0 547.0,661.0 547.0,657.0 546.0,656.0 546.0,652.0 545.0,651.0 545.0,647.0 544.0,646.0 544.0,640.0 543.0,639.0 543.0,632.0 542.0,631.0 542.0,621.0 541.0,620.0 541.0,580.0 542.0,579.0 542.0,569.0 543.0,568.0 543.0,567.0 542.0,567.0 541.0,568.0 540.0,568.0 539.0,569.0 538.0,569.0 537.0,570.0 536.0,570.0 535.0,571.0 533.0,571.0 532.0,572.0 531.0,572.0 530.0,573.0 528.0,573.0 527.0,574.0 526.0,574.0 525.0,575.0 522.0,575.0 521.0,576.0 518.0,576.0 517.0,577.0 513.0,577.0 512.0,578.0 508.0,578.0 507.0,579.0 499.0,579.0 498.0,580.0 487.0,580.0 486.0,579.0 485.0,580.0 484.0,579.0 483.0,580.0 482.0,579.0 476.0,579.0 475.0,578.0 472.0,578.0 471.0,577.0 469.0,577.0 468.0,576.0 466.0,576.0 465.0,575.0 463.0,575.0 462.0,574.0 463.0,573.0 479.0,573.0 480.0,572.0 491.0,572.0 492.0,571.0 497.0,571.0 498.0,570.0 503.0,570.0 504.0,569.0 507.0,569.0 508.0,568.0 511.0,568.0 512.0,567.0 515.0,567.0 516.0,566.0 518.0,566.0 519.0,565.0 521.0,565.0 522.0,564.0 524.0,564.0 525.0,563.0 526.0,563.0 527.0,562.0 529.0,562.0 530.0,561.0 531.0,561.0 532.0,560.0 533.0,560.0 534.0,559.0 535.0,559.0 537.0,557.0 538.0,557.0 539.0,556.0 540.0,556.0 543.0,553.0 544.0,553.0 550.0,547.0 550.0,546.0 552.0,544.0 552.0,543.0 554.0,541.0 554.0,540.0 555.0,539.0 555.0,538.0 556.0,537.0 556.0,535.0 557.0,534.0 557.0,532.0 558.0,531.0 558.0,524.0 559.0,523.0 559.0,518.0 558.0,517.0 558.0,511.0 557.0,510.0 557.0,508.0 556.0,507.0 556.0,505.0 555.0,504.0 555.0,502.0 554.0,501.0 554.0,499.0 553.0,498.0 553.0,495.0 555.0,493.0 558.0,493.0 559.0,492.0 563.0,492.0 564.0,491.0 568.0,491.0 569.0,490.0 573.0,490.0 574.0,489.0 578.0,489.0 579.0,488.0 581.0,488.0 582.0,487.0 586.0,487.0 587.0,486.0 591.0,486.0 592.0,485.0 595.0,485.0 596.0,484.0 597.0,484.0 598.0,483.0 601.0,483.0 602.0,482.0 605.0,482.0 606.0,481.0 608.0,481.0 609.0,480.0 611.0,480.0 612.0,479.0 614.0,479.0 615.0,478.0 617.0,478.0 618.0,477.0 620.0,477.0 621.0,476.0 622.0,476.0 623.0,475.0 625.0,475.0 626.0,474.0 628.0,474.0 629.0,473.0 630.0,473.0 631.0,472.0 633.0,472.0 634.0,471.0 635.0,471.0 636.0,470.0 637.0,470.0 638.0,469.0 639.0,469.0 640.0,468.0 641.0,468.0 642.0,467.0 643.0,467.0 644.0,466.0 645.0,466.0 647.0,464.0 648.0,464.0 649.0,463.0 650.0,463.0 652.0,461.0 653.0,461.0 656.0,458.0 657.0,459.0 657.0,462.0 658.0,463.0 658.0,482.0 659.0,483.0 659.0,492.0 660.0,493.0 660.0,500.0 661.0,501.0 661.0,509.0 662.0,510.0 662.0,516.0 663.0,517.0 663.0,522.0 664.0,523.0 664.0,527.0 665.0,528.0 665.0,533.0 666.0,534.0 666.0,538.0 667.0,539.0 667.0,543.0 668.0,544.0 668.0,548.0 669.0,549.0 669.0,553.0 670.0,554.0 670.0,558.0 671.0,559.0 671.0,560.0 669.0,562.0 668.0,561.0 666.0,561.0 665.0,560.0 656.0,560.0 655.0,559.0 636.0,559.0 635.0,560.0 627.0,560.0 626.0,561.0 625.0,560.0 624.0,561.0 620.0,561.0 619.0,562.0 617.0,562.0 616.0,561.0 617.0,560.0 617.0,556.0 618.0,555.0 618.0,551.0 619.0,550.0 619.0,547.0 620.0,546.0 620.0,543.0 621.0,542.0 621.0,538.0 622.0,537.0 622.0,535.0 623.0,534.0 623.0,529.0 624.0,528.0 624.0,524.0 625.0,523.0 625.0,519.0 626.0,518.0 626.0,514.0 627.0,513.0 627.0,508.0 628.0,507.0 628.0,503.0 629.0,502.0 629.0,498.0 630.0,497.0 630.0,494.0 630.0,495.0 629.0,496.0 629.0,499.0 628.0,500.0 628.0,501.0 627.0,502.0 627.0,504.0 626.0,505.0 626.0,507.0 625.0,508.0 625.0,510.0 624.0,511.0 624.0,513.0 623.0,514.0 623.0,516.0 622.0,517.0 622.0,519.0 621.0,520.0 621.0,522.0 620.0,523.0 620.0,525.0 619.0,526.0 619.0,527.0 618.0,528.0 618.0,530.0 617.0,531.0 617.0,533.0 616.0,534.0 616.0,537.0 615.0,538.0 615.0,539.0 614.0,540.0 614.0,542.0 613.0,543.0 613.0,546.0 612.0,547.0 612.0,548.0 611.0,549.0 611.0,551.0 610.0,552.0 610.0,554.0 609.0,555.0 609.0,556.0 608.0,557.0 608.0,559.0 607.0,560.0 607.0,562.0 606.0,563.0 606.0,564.0 605.0,565.0 605.0,572.0 606.0,573.0 606.0,574.0 613.0,581.0 614.0,581.0 616.0,583.0 617.0,583.0 618.0,584.0 619.0,584.0 620.0,585.0 621.0,585.0 622.0,586.0 624.0,586.0 625.0,587.0 626.0,587.0 627.0,588.0 629.0,588.0 630.0,589.0 633.0,589.0 634.0,590.0 639.0,590.0 640.0,591.0 653.0,591.0 654.0,590.0 659.0,590.0 660.0,589.0 662.0,589.0 663.0,588.0 666.0,588.0 667.0,587.0 668.0,587.0 669.0,586.0 671.0,586.0 672.0,585.0 673.0,585.0 674.0,584.0 675.0,584.0 677.0,582.0 678.0,582.0 679.0,581.0 680.0,581.0 683.0,578.0 684.0,578.0 687.0,575.0 687.0,574.0 689.0,572.0 689.0,568.0 688.0,567.0 688.0,565.0 687.0,564.0 687.0,562.0 686.0,561.0 686.0,560.0 685.0,559.0 685.0,558.0 684.0,557.0 684.0,555.0 683.0,554.0 683.0,553.0 682.0,552.0 682.0,550.0 681.0,549.0 681.0,547.0 680.0,546.0 680.0,544.0 679.0,543.0 679.0,541.0 678.0,540.0 678.0,538.0 677.0,537.0 677.0,535.0 676.0,534.0 676.0,532.0 675.0,531.0 675.0,529.0 674.0,528.0 674.0,525.0 673.0,524.0 673.0,522.0 672.0,521.0 672.0,519.0 671.0,518.0 671.0,515.0 670.0,514.0 670.0,511.0 669.0,510.0 669.0,507.0 668.0,506.0 668.0,503.0 667.0,502.0 667.0,499.0 666.0,498.0 666.0,495.0 665.0,494.0 665.0,491.0 664.0,490.0 664.0,487.0 663.0,486.0 663.0,482.0 662.0,481.0 662.0,479.0 661.0,478.0 661.0,474.0 660.0,473.0 660.0,468.0 659.0,467.0 659.0,464.0 658.0,463.0 658.0,457.0 669.0,446.0 669.0,445.0 671.0,443.0 671.0,442.0 673.0,440.0 673.0,438.0 674.0,437.0 674.0,436.0 675.0,435.0 675.0,433.0 676.0,432.0 676.0,431.0 677.0,430.0 677.0,428.0 678.0,427.0 678.0,425.0 679.0,424.0 679.0,422.0 680.0,421.0 680.0,419.0 681.0,418.0 681.0,416.0 682.0,415.0 682.0,412.0 683.0,411.0 683.0,408.0 684.0,407.0 684.0,405.0 685.0,404.0 685.0,402.0 686.0,401.0 686.0,398.0 687.0,397.0 687.0,395.0 688.0,394.0 688.0,391.0 689.0,390.0 689.0,388.0 690.0,387.0 690.0,385.0 691.0,384.0 691.0,381.0 692.0,380.0 692.0,378.0 693.0,377.0 693.0,374.0 694.0,373.0 694.0,371.0 695.0,370.0 695.0,368.0 696.0,367.0 696.0,366.0 698.0,364.0 701.0,364.0 702.0,363.0 705.0,363.0 706.0,362.0 709.0,362.0 710.0,361.0 713.0,361.0 714.0,360.0 718.0,360.0 719.0,359.0 723.0,359.0 724.0,358.0 729.0,358.0 730.0,357.0 734.0,357.0 735.0,356.0 747.0,356.0 748.0,355.0 771.0,355.0 771.0,354.0 769.0,354.0 768.0,353.0 766.0,353.0 765.0,352.0 763.0,352.0 762.0,351.0 759.0,351.0 758.0,350.0 756.0,350.0 755.0,349.0 748.0,349.0 747.0,348.0 741.0,348.0 740.0,347.0 720.0,347.0 719.0,348.0 711.0,348.0 710.0,349.0 706.0,349.0 705.0,350.0 702.0,350.0 701.0,349.0 702.0,348.0 702.0,346.0 703.0,345.0 703.0,343.0 704.0,342.0 704.0,340.0 705.0,339.0 705.0,336.0 706.0,335.0 706.0,333.0 707.0,332.0 707.0,331.0 708.0,330.0 708.0,329.0 712.0,325.0 712.0,324.0 715.0,321.0 715.0,320.0 716.0,319.0 716.0,318.0 717.0,317.0 717.0,310.0 716.0,309.0 716.0,308.0 711.0,303.0 710.0,303.0 709.0,302.0 707.0,302.0 706.0,301.0 701.0,301.0 700.0,300.0" /><polygon fill="black" points="464.0,297.0 463.0,298.0 458.0,298.0 457.0,299.0 453.0,299.0 452.0,300.0 450.0,300.0 449.0,301.0 448.0,301.0 447.0,302.0 446.0,302.0 443.0,305.0 442.0,305.0 442.0,306.0 438.0,310.0 438.0,311.0 437.0,312.0 437.0,314.0 436.0,315.0 436.0,318.0 435.0,319.0 435.0,329.0 436.0,330.0 436.0,336.0 437.0,337.0 437.0,340.0 438.0,341.0 438.0,344.0 439.0,345.0 439.0,347.0 440.0,348.0 440.0,351.0 441.0,352.0 441.0,353.0 441.0,352.0 442.0,351.0 443.0,351.0 443.0,350.0 445.0,348.0 446.0,348.0 446.0,347.0 447.0,346.0 448.0,346.0 450.0,344.0 451.0,344.0 453.0,342.0 454.0,342.0 456.0,340.0 458.0,340.0 459.0,339.0 460.0,339.0 462.0,337.0 464.0,337.0 465.0,336.0 466.0,336.0 467.0,335.0 469.0,335.0 470.0,334.0 471.0,334.0 472.0,333.0 474.0,333.0 474.0,332.0 473.0,332.0 472.0,333.0 468.0,333.0 467.0,334.0 464.0,334.0 463.0,335.0 460.0,335.0 459.0,336.0 456.0,336.0 455.0,337.0 453.0,337.0 452.0,338.0 451.0,338.0 450.0,339.0 449.0,339.0 448.0,340.0 447.0,340.0 445.0,342.0 444.0,341.0 444.0,340.0 445.0,339.0 445.0,337.0 446.0,336.0 446.0,335.0 448.0,333.0 448.0,332.0 450.0,330.0 450.0,329.0 452.0,327.0 452.0,326.0 457.0,321.0 457.0,320.0 458.0,319.0 459.0,319.0 463.0,315.0 464.0,315.0 466.0,313.0 467.0,313.0 468.0,312.0 469.0,312.0 470.0,311.0 474.0,311.0 475.0,310.0 478.0,310.0 479.0,311.0 485.0,311.0 486.0,312.0 488.0,312.0 489.0,313.0 490.0,313.0 491.0,314.0 492.0,314.0 493.0,315.0 494.0,315.0 496.0,317.0 497.0,317.0 499.0,319.0 500.0,319.0 505.0,324.0 506.0,324.0 507.0,325.0 507.0,326.0 511.0,330.0 511.0,331.0 512.0,332.0 512.0,333.0 513.0,334.0 513.0,335.0 514.0,336.0 514.0,337.0 513.0,338.0 509.0,334.0 508.0,334.0 507.0,333.0 506.0,333.0 504.0,331.0 502.0,331.0 501.0,330.0 499.0,330.0 498.0,329.0 494.0,329.0 493.0,328.0 487.0,328.0 486.0,327.0 481.0,327.0 482.0,327.0 483.0,328.0 485.0,328.0 486.0,329.0 488.0,329.0 489.0,330.0 491.0,330.0 492.0,331.0 494.0,331.0 495.0,332.0 496.0,332.0 497.0,333.0 498.0,333.0 499.0,334.0 500.0,334.0 501.0,335.0 502.0,335.0 505.0,338.0 506.0,338.0 511.0,343.0 512.0,343.0 514.0,345.0 514.0,346.0 517.0,349.0 517.0,350.0 518.0,351.0 518.0,349.0 519.0,348.0 519.0,345.0 520.0,344.0 520.0,341.0 521.0,340.0 521.0,338.0 522.0,337.0 522.0,331.0 523.0,330.0 523.0,316.0 522.0,315.0 522.0,313.0 521.0,312.0 521.0,311.0 520.0,310.0 520.0,309.0 518.0,307.0 518.0,306.0 516.0,304.0 515.0,304.0 513.0,302.0 512.0,302.0 511.0,301.0 510.0,301.0 509.0,300.0 508.0,300.0 507.0,299.0 503.0,299.0 502.0,298.0 497.0,298.0 496.0,297.0 487.0,297.0 486.0,298.0 476.0,298.0 475.0,297.0" /><polygon fill="black" points="815.0,119.0" /></svg>